<svg width="21" height="20" viewBox="0 0 21 20" fill="none" xmlns="http://www.w3.org/2000/svg">
<path fill-rule="evenodd" clip-rule="evenodd" d="M14.203 5.45722C13.1705 4.47247 11.7926 3.936 10.3669 3.95805C7.75803 3.95805 5.54235 5.71809 4.75233 8.08809C4.33345 9.33005 4.33344 10.675 4.75233 11.9169H4.756C5.54968 14.2833 7.76169 16.0433 10.3705 16.0433C11.7172 16.0433 12.8734 15.6989 13.7694 15.0904V15.088C14.824 14.3898 15.5442 13.2912 15.7683 12.0492H10.3669V8.19839H19.7992C19.9168 8.86714 19.9719 9.55059 19.9719 10.2304C19.9719 13.2719 18.8849 15.8434 16.9936 17.5851L16.9956 17.5866C15.3384 19.1151 13.0639 20.0007 10.3669 20.0007C6.58587 20.0007 3.12822 17.8695 1.43062 14.4927C0.0122985 11.6671 0.012302 8.338 1.43063 5.51236C3.12823 2.13188 6.58587 0.000673888 10.3669 0.000673888C12.8508 -0.0287217 15.2502 0.904587 17.058 2.60218L14.203 5.45722Z" fill="#99213C"/>
</svg>
