<svg width="21" height="20" viewBox="0 0 21 20" fill="none" xmlns="http://www.w3.org/2000/svg">
<path d="M15.7521 8.33259V6.52184C15.7521 6.07999 15.5762 5.65564 15.2636 5.34301L12.9059 2.98536C12.5933 2.67273 12.1689 2.49683 11.7271 2.49683H5.74793C4.82671 2.49683 4.08057 3.24297 4.08057 4.16419V15.8357C4.08057 16.7569 4.82671 17.5031 5.74793 17.5031H9.08265" stroke="#4D5168" stroke-linecap="round" stroke-linejoin="round"/>
<path d="M15.7519 6.66523H12.4172C11.957 6.66523 11.5835 6.29174 11.5835 5.83155V2.49683" stroke="#4D5168" stroke-linecap="round" stroke-linejoin="round"/>
<path d="M14.5016 18.3369C12.4299 18.3369 10.75 16.657 10.75 14.5853C10.75 12.5136 12.4299 10.8337 14.5016 10.8337C16.5741 10.8337 18.2531 12.5136 18.2531 14.5853C18.2531 16.657 16.5741 18.3369 14.5016 18.3369" stroke="#4D5168" stroke-linecap="round" stroke-linejoin="round"/>
<path d="M14.5023 14.446V13.0696" stroke="#4D5168" stroke-linecap="round" stroke-linejoin="round"/>
<path d="M14.5014 15.9649C14.4639 15.9649 14.433 15.9958 14.4339 16.0333C14.4339 16.0708 14.4647 16.1017 14.5022 16.1017C14.5397 16.1017 14.5698 16.0708 14.5698 16.0333C14.5698 15.9958 14.5397 15.9649 14.5014 15.9649" stroke="#4D5168" stroke-linecap="round" stroke-linejoin="round"/>
</svg>
