<svg width="21" height="20" viewBox="0 0 21 20" fill="none" xmlns="http://www.w3.org/2000/svg">
<path d="M17.8271 7.93615C18.4855 8.59451 18.4855 9.66192 17.8271 10.3203C17.1688 10.9786 16.1013 10.9786 15.443 10.3203C14.7846 9.66192 14.7846 8.59451 15.443 7.93615C16.1013 7.27779 17.1688 7.27779 17.8271 7.93615" stroke="#4D5168" stroke-linecap="round" stroke-linejoin="round"/>
<path d="M12.3354 4.9268C13.3492 5.94054 13.3492 7.58413 12.3354 8.59787C11.3217 9.6116 9.67809 9.6116 8.66435 8.59787C7.65062 7.58414 7.65062 5.94055 8.66435 4.9268C9.67809 3.91307 11.3217 3.91307 12.3354 4.9268" stroke="#4D5168" stroke-linecap="round" stroke-linejoin="round"/>
<path d="M5.55709 7.93615C6.21545 8.59451 6.21545 9.66192 5.55709 10.3203C4.89873 10.9786 3.83133 10.9786 3.17297 10.3203C2.51461 9.66192 2.51461 8.59451 3.17297 7.93615C3.83133 7.27779 4.89874 7.27779 5.55709 7.93615" stroke="#4D5168" stroke-linecap="round" stroke-linejoin="round"/>
<path d="M19.6666 15.8331V14.9198C19.6666 13.7689 18.7341 12.8364 17.5833 12.8364H16.9158" stroke="#4D5168" stroke-linecap="round" stroke-linejoin="round"/>
<path d="M1.33325 15.8331V14.9198C1.33325 13.7689 2.26575 12.8364 3.41659 12.8364H4.08409" stroke="#4D5168" stroke-linecap="round" stroke-linejoin="round"/>
<path d="M14.949 15.8334V14.4992C14.949 12.8884 13.6431 11.5825 12.0323 11.5825H8.96647C7.35564 11.5825 6.0498 12.8884 6.0498 14.4992V15.8334" stroke="#4D5168" stroke-linecap="round" stroke-linejoin="round"/>
</svg>
