<svg width="15" height="16" viewBox="0 0 15 16" fill="none" xmlns="http://www.w3.org/2000/svg">
<path d="M5.17407 13.0024V13.4293C5.17407 13.9797 5.39283 14.5075 5.78218 14.8966C6.17153 15.2856 6.69954 15.5039 7.24994 15.5035V15.5035C7.80041 15.5037 8.32842 15.2852 8.71774 14.896C9.10707 14.5068 9.3258 13.9789 9.3258 13.4285V13.0024" stroke="#4D5168" stroke-linecap="round" stroke-linejoin="round"/>
<path fill-rule="evenodd" clip-rule="evenodd" d="M12.2079 13.0023C13.1532 13.0023 13.9195 12.236 13.9195 11.2907V11.2907C13.9191 10.8106 13.7284 10.3501 13.3892 10.0102L12.2521 8.87389V5.49915C12.2521 2.73658 10.0126 0.49707 7.25001 0.49707V0.49707C4.48744 0.49707 2.24793 2.73658 2.24793 5.49915V8.87389L1.11079 10.0102C0.771609 10.3501 0.580951 10.8106 0.580566 11.2907V11.2907C0.580566 11.7447 0.76089 12.18 1.08187 12.501C1.40284 12.822 1.83818 13.0023 2.29211 13.0023H12.2079Z" stroke="#4D5168" stroke-linecap="round" stroke-linejoin="round"/>
</svg>
