<svg width="21" height="20" viewBox="0 0 21 20" fill="none" xmlns="http://www.w3.org/2000/svg">
<path d="M17.1694 6.66535H13.8347C13.3742 6.66535 13.001 6.2921 13.001 5.83167V2.49695" stroke="white" stroke-linecap="round" stroke-linejoin="round"/>
<path d="M5.49805 6.66535V4.16431C5.49805 3.24345 6.24455 2.49695 7.16541 2.49695H13.1446C13.5867 2.49695 14.0108 2.67277 14.3234 2.98549L16.681 5.34313C16.9937 5.65575 17.1696 6.07978 17.1696 6.52196V15.8358C17.1696 16.7567 16.4231 17.5032 15.5022 17.5032H7.16541C6.24455 17.5032 5.49805 16.7567 5.49805 15.8358V15.0022" stroke="white" stroke-linecap="round" stroke-linejoin="round"/>
<rect x="2.99707" y="6.66528" width="8.33681" height="8.33681" rx="3" stroke="white" stroke-linecap="round" stroke-linejoin="round"/>
<path fill-rule="evenodd" clip-rule="evenodd" d="M7.78267 9.52734L8.86646 11.4448C8.98983 11.665 8.98695 11.9341 8.8589 12.1516C8.73085 12.3691 8.49691 12.5022 8.24453 12.5011H6.08697C5.83527 12.5009 5.60257 12.3672 5.47563 12.1498C5.34869 11.9325 5.34656 11.6641 5.47004 11.4448L6.54882 9.52734C6.67418 9.30445 6.91002 9.1665 7.16575 9.1665C7.42148 9.1665 7.65732 9.30445 7.78267 9.52734Z" stroke="white" stroke-linecap="round" stroke-linejoin="round"/>
</svg>
