<svg width="17" height="20" viewBox="0 0 17 20" fill="none" xmlns="http://www.w3.org/2000/svg">
<path d="M16.9421 6.65851C16.9421 7.94852 16.9132 9.23853 16.9481 10.5273C17.0193 13.158 15.9571 15.2317 13.9413 16.8653C12.3318 18.1685 10.5126 19.1138 8.64023 19.9661C8.54016 20.0119 8.44974 20.0107 8.34967 19.9649C6.26636 19.0149 4.24092 17.9696 2.53136 16.4071C0.941147 14.9532 0.0646623 13.1701 0.056223 10.9975C0.0453724 8.04979 0.0489893 5.10085 0.0514005 2.15311C0.0514005 1.54789 0.194869 1.37308 0.806118 1.26699C2.66518 0.945085 4.52545 0.635241 6.38451 0.318164C6.77393 0.251855 7.17058 0.208452 7.55035 0.104769C8.31833 -0.106214 9.06219 0.0444883 9.81571 0.175901C11.8375 0.52553 13.8606 0.871542 15.8848 1.2055C16.8348 1.36223 16.9397 1.47073 16.9385 2.4292C16.9373 3.83857 16.9385 5.24914 16.9385 6.65851H16.9421ZM15.3736 7.22997C15.3736 5.83869 15.3616 4.44741 15.382 3.05612C15.3869 2.7511 15.2796 2.67876 15.0083 2.63536C13.1914 2.33878 11.3806 2.01688 9.56373 1.7203C9.08872 1.64314 8.61853 1.47194 8.12181 1.5913C7.83608 1.65881 7.54311 1.6998 7.25256 1.74803C5.46583 2.05064 3.67911 2.35325 1.89117 2.65586C1.75253 2.67997 1.60906 2.66671 1.60906 2.89819C1.60906 5.24794 1.58977 7.59648 1.5958 9.94623C1.59821 10.7359 1.58254 11.5316 1.76458 12.3117C2.06358 13.5956 2.82673 14.583 3.784 15.439C4.98238 16.512 6.38331 17.2655 7.7975 18.007C8.30024 18.271 8.72703 18.3289 9.18999 17.9913C9.27077 17.9322 9.37083 17.9009 9.46125 17.8551C10.8562 17.1534 12.1992 16.3722 13.3518 15.304C14.5622 14.184 15.3314 12.853 15.3652 11.1543C15.3917 9.84616 15.4062 8.53807 15.3724 7.22997" fill="white"/>
<path d="M6.76571 15.8429C6.49807 15.6705 6.26538 15.4981 6.03993 15.3137C5.50705 14.8784 5.04047 14.3853 4.71014 13.7741C4.2315 12.8856 4.17966 11.9548 4.44008 10.9927C4.69205 10.0644 5.18997 9.28196 5.84703 8.59235C6.33772 8.07635 6.83202 7.56517 7.31909 7.04554C7.75914 6.57535 8.17388 6.08587 8.47166 5.50838C8.77307 4.92486 8.89484 4.32205 8.65371 3.68428C8.58379 3.49741 8.48493 3.32501 8.38004 3.15381C8.62357 3.26834 8.84661 3.41061 9.0588 3.56975C10.3283 4.5258 11.0324 5.80135 11.1903 7.37588C11.2844 8.31385 11.1554 9.23133 10.8805 10.1307C10.7467 10.5708 10.5839 11 10.3874 11.4304C10.4923 11.4183 10.5622 11.3605 10.6297 11.305C10.8853 11.094 11.0589 10.8203 11.2108 10.5322C11.376 10.2175 11.4941 9.88477 11.5894 9.54479C11.6352 9.5472 11.6485 9.58216 11.6666 9.60628C12.2814 10.408 12.666 11.299 12.713 12.3189C12.754 13.2159 12.4779 14.014 11.9402 14.7277C11.5966 15.1835 11.1783 15.562 10.7165 15.8948C10.7057 15.9032 10.6924 15.908 10.6671 15.9213C10.7901 15.1774 10.6611 14.5095 10.1439 13.9417C10.18 14.3661 9.92564 14.653 9.68572 14.9448C9.5736 15.0822 9.45665 15.216 9.33368 15.3474C9.37226 15.1377 9.40481 14.9303 9.40843 14.7181C9.41928 14.184 9.28546 13.6776 9.11788 13.1773C8.95029 12.6758 8.73569 12.1911 8.59705 11.6787C8.50783 11.3496 8.44755 11.0168 8.51989 10.6745C8.52953 10.6286 8.5428 10.584 8.56088 10.5129C7.62411 11.0603 7.00443 11.8343 6.6765 12.8397C6.34978 13.8392 6.38715 14.835 6.76571 15.8417" fill="white"/>
</svg>
