<svg width="33" height="32" viewBox="0 0 33 32" fill="none" xmlns="http://www.w3.org/2000/svg">
<rect x="0.5" width="32" height="32" rx="16" fill="#EDEEF3"/>
<path d="M21.8341 18.0856V12.6653C21.8341 11.1921 20.6397 9.99756 19.1664 9.99756H13.1639C11.6906 9.99756 10.4961 11.1921 10.4961 12.6653V18.6678C10.4961 20.1411 11.6906 21.3356 13.1639 21.3356H18.5841" stroke="#1E2028" stroke-linecap="round" stroke-linejoin="round"/>
<path d="M17.0033 13.1213C17.5896 13.7076 17.5896 14.6573 17.0033 15.2435C16.4171 15.8298 15.4673 15.8298 14.8811 15.2435C14.2948 14.6573 14.2948 13.7076 14.8811 13.1213C15.4673 12.5351 16.4171 12.5351 17.0033 13.1213" stroke="#1E2028" stroke-linecap="round" stroke-linejoin="round"/>
<path d="M17.8327 17.6473C17.5592 17.4979 17.2478 17.4092 16.9136 17.4092H14.9715C14.1411 17.4092 13.4402 17.9341 13.1641 18.6677" stroke="#1E2028" stroke-linecap="round" stroke-linejoin="round"/>
<path d="M22.0013 20.7114H20.334" stroke="#1E2028" stroke-linecap="round" stroke-linejoin="round"/>
<path d="M21.1675 19.8774V21.5448" stroke="#1E2028" stroke-linecap="round" stroke-linejoin="round"/>
<path d="M21.1678 18.001C22.6411 18.001 23.8356 19.1955 23.8356 20.6688C23.8356 22.142 22.6411 23.3365 21.1678 23.3365C19.6945 23.3365 18.5 22.142 18.5 20.6688C18.5 19.1955 19.6945 18.001 21.1678 18.001" stroke="#1E2028" stroke-linecap="round" stroke-linejoin="round"/>
</svg>
