<svg width="40" height="40" viewBox="0 0 40 40" fill="none" xmlns="http://www.w3.org/2000/svg">
<rect width="40" height="40" rx="20" fill="#EDEEF3"/>
<path d="M26.6696 22.6061V15.8308C26.6696 13.9892 25.1765 12.4961 23.3349 12.4961H15.8318C13.9902 12.4961 12.4971 13.9892 12.4971 15.8308V23.3339C12.4971 25.1755 13.9902 26.6687 15.8318 26.6687H22.6071" stroke="#1E2028" stroke-linecap="round" stroke-linejoin="round"/>
<path d="M20.6311 16.4012C21.3639 17.134 21.3639 18.3211 20.6311 19.0539C19.8983 19.7867 18.7111 19.7867 17.9783 19.0539C17.2455 18.3211 17.2455 17.134 17.9783 16.4012C18.7111 15.6684 19.8983 15.6684 20.6311 16.4012" stroke="#1E2028" stroke-linecap="round" stroke-linejoin="round"/>
<path d="M21.6678 22.0593C21.326 21.8726 20.9367 21.7617 20.519 21.7617H18.0913C17.0534 21.7617 16.1772 22.4178 15.832 23.3349" stroke="#1E2028" stroke-linecap="round" stroke-linejoin="round"/>
<path d="M26.8781 25.8895H24.7939" stroke="#1E2028" stroke-linecap="round" stroke-linejoin="round"/>
<path d="M25.8358 24.8477V26.9319" stroke="#1E2028" stroke-linecap="round" stroke-linejoin="round"/>
<path d="M25.8357 22.5C27.6773 22.5 29.1704 23.9931 29.1704 25.8347C29.1704 27.6763 27.6773 29.1694 25.8357 29.1694C23.9941 29.1694 22.501 27.6763 22.501 25.8347C22.501 23.9931 23.9941 22.5 25.8357 22.5" stroke="#1E2028" stroke-linecap="round" stroke-linejoin="round"/>
</svg>
