<svg width="18" height="18" viewBox="0 0 18 18" fill="none" xmlns="http://www.w3.org/2000/svg">
<path d="M8.5244 1.03629C8.6504 0.543568 9.35026 0.543569 9.47626 1.03629L10.1355 3.61423C10.6692 5.70139 12.299 7.33117 14.3862 7.86491L16.9641 8.52415C17.4568 8.65015 17.4568 9.35001 16.9641 9.47601L14.3862 10.1353C12.299 10.669 10.6692 12.2988 10.1355 14.3859L9.47626 16.9639C9.35026 17.4566 8.6504 17.4566 8.5244 16.9639L7.86515 14.3859C7.33142 12.2988 5.70164 10.669 3.61448 10.1353L1.03653 9.47601C0.543812 9.35001 0.543813 8.65015 1.03653 8.52415L3.61448 7.86491C5.70164 7.33117 7.33142 5.70139 7.86515 3.61423L8.5244 1.03629Z" stroke="#F7FBF6" stroke-linecap="round" stroke-linejoin="round"/>
</svg>
