<svg width="24" height="24" viewBox="0 0 24 24" fill="none" xmlns="http://www.w3.org/2000/svg">
<path d="M3 21V12C3 11.4477 3.44772 11 4 11H7" stroke="#99213C" stroke-width="1.5" stroke-linecap="round" stroke-linejoin="round"/>
<path d="M11 7.99963V4.50099C11 4.00902 11.2412 3.54832 11.6456 3.2681C12.05 2.98788 12.566 2.92375 13.0267 3.09649L20.3511 5.84316C20.7414 5.98952 21 6.36264 21 6.77949V20.9996" stroke="#99213C" stroke-width="1.5" stroke-linecap="round" stroke-linejoin="round"/>
<path d="M7 21V9C7 8.44772 7.44772 8 8 8H15C15.5523 8 16 8.44772 16 9V21" stroke="#99213C" stroke-width="1.5" stroke-linecap="round" stroke-linejoin="round"/>
<path d="M22 21H2" stroke="#99213C" stroke-width="1.5" stroke-linecap="round" stroke-linejoin="round"/>
<path d="M10 17.5H13" stroke="#99213C" stroke-width="1.5" stroke-linecap="round" stroke-linejoin="round"/>
<path d="M10 14.5H13" stroke="#99213C" stroke-width="1.5" stroke-linecap="round" stroke-linejoin="round"/>
<path d="M10 11.5H13" stroke="#99213C" stroke-width="1.5" stroke-linecap="round" stroke-linejoin="round"/>
</svg>
