<svg width="24" height="25" viewBox="0 0 24 25" fill="none" xmlns="http://www.w3.org/2000/svg">
<path d="M16 2.5V6.5" stroke="#1E2028" stroke-width="1.5" stroke-linecap="round" stroke-linejoin="round"/>
<path d="M8 2.5V6.5" stroke="#1E2028" stroke-width="1.5" stroke-linecap="round" stroke-linejoin="round"/>
<path d="M3 9.5H21" stroke="#1E2028" stroke-width="1.5" stroke-linecap="round" stroke-linejoin="round"/>
<path fill-rule="evenodd" clip-rule="evenodd" d="M19 4.5H5C3.895 4.5 3 5.395 3 6.5V19.5C3 20.605 3.895 21.5 5 21.5H19C20.105 21.5 21 20.605 21 19.5V6.5C21 5.395 20.105 4.5 19 4.5Z" stroke="#1E2028" stroke-width="1.5" stroke-linecap="round" stroke-linejoin="round"/>
<path d="M7.01267 13.2305C6.87468 13.2305 6.76268 13.3425 6.76368 13.4805C6.76368 13.6185 6.87568 13.7305 7.01368 13.7305C7.15167 13.7305 7.26367 13.6185 7.26367 13.4805C7.26367 13.3425 7.15167 13.2305 7.01267 13.2305" stroke="#1E2028" stroke-width="1.5" stroke-linecap="round" stroke-linejoin="round"/>
<path d="M12.0127 13.2305C11.8747 13.2305 11.7627 13.3425 11.7637 13.4805C11.7637 13.6185 11.8757 13.7305 12.0137 13.7305C12.1517 13.7305 12.2637 13.6185 12.2637 13.4805C12.2637 13.3425 12.1517 13.2305 12.0127 13.2305" stroke="#1E2028" stroke-width="1.5" stroke-linecap="round" stroke-linejoin="round"/>
<path d="M17.0137 13.2305C16.8757 13.2305 16.7637 13.3425 16.7647 13.4805C16.7647 13.6185 16.8767 13.7305 17.0147 13.7305C17.1527 13.7305 17.2647 13.6185 17.2647 13.4805C17.2647 13.3425 17.1527 13.2305 17.0137 13.2305" stroke="#1E2028" stroke-width="1.5" stroke-linecap="round" stroke-linejoin="round"/>
<path d="M7.01267 17.2305C6.87468 17.2305 6.76268 17.3425 6.76368 17.4805C6.76368 17.6185 6.87568 17.7305 7.01368 17.7305C7.15167 17.7305 7.26367 17.6185 7.26367 17.4805C7.26367 17.3425 7.15167 17.2305 7.01267 17.2305" stroke="#1E2028" stroke-width="1.5" stroke-linecap="round" stroke-linejoin="round"/>
<path d="M12.0127 17.2305C11.8747 17.2305 11.7627 17.3425 11.7637 17.4805C11.7637 17.6185 11.8757 17.7305 12.0137 17.7305C12.1517 17.7305 12.2637 17.6185 12.2637 17.4805C12.2637 17.3425 12.1517 17.2305 12.0127 17.2305" stroke="#1E2028" stroke-width="1.5" stroke-linecap="round" stroke-linejoin="round"/>
</svg>
