<svg width="20" height="20" viewBox="0 0 20 20" fill="none" xmlns="http://www.w3.org/2000/svg">
<path d="M16.6706 12.6061V5.83082C16.6706 3.98922 15.1775 2.49609 13.3359 2.49609H5.83277C3.99117 2.49609 2.49805 3.98922 2.49805 5.83082V13.3339C2.49805 15.1755 3.99117 16.6687 5.83277 16.6687H12.6081" stroke="#1E2028" stroke-linecap="round" stroke-linejoin="round"/>
<path d="M10.6321 6.40117C11.3649 7.13397 11.3649 8.32113 10.6321 9.05394C9.89926 9.78674 8.7121 9.78674 7.97929 9.05394C7.24649 8.32113 7.24649 7.13397 7.97929 6.40117C8.7121 5.66836 9.89926 5.66836 10.6321 6.40117" stroke="#1E2028" stroke-linecap="round" stroke-linejoin="round"/>
<path d="M11.6678 12.0593C11.326 11.8726 10.9367 11.7617 10.519 11.7617H8.09131C7.05337 11.7617 6.17717 12.4178 5.83203 13.3349" stroke="#1E2028" stroke-linecap="round" stroke-linejoin="round"/>
<path d="M16.8791 15.8895H14.7949" stroke="#1E2028" stroke-linecap="round" stroke-linejoin="round"/>
<path d="M15.8368 14.8477V16.9319" stroke="#1E2028" stroke-linecap="round" stroke-linejoin="round"/>
<path d="M15.8367 12.5C17.6783 12.5 19.1714 13.9931 19.1714 15.8347C19.1714 17.6763 17.6783 19.1694 15.8367 19.1694C13.9951 19.1694 12.502 17.6763 12.502 15.8347C12.502 13.9931 13.9951 12.5 15.8367 12.5" stroke="#1E2028" stroke-linecap="round" stroke-linejoin="round"/>
</svg>
