<svg width="20" height="20" viewBox="0 0 20 20" fill="none" xmlns="http://www.w3.org/2000/svg">
<path fill-rule="evenodd" clip-rule="evenodd" d="M7.49902 12.5011L10.1251 12.1768C10.3096 12.1542 10.4813 12.0706 10.6128 11.9392L16.9746 5.58157C17.6791 4.87677 17.6791 3.73446 16.9746 3.02967V3.02967C16.2698 2.32523 15.1275 2.32523 14.4227 3.02967L8.12012 9.33229C7.99247 9.4599 7.90968 9.62548 7.88418 9.80416L7.49902 12.5011Z" stroke="#F2F7FF" stroke-width="1.5" stroke-linecap="round" stroke-linejoin="round"/>
<path d="M9.58336 3.33057C5.66971 3.33057 2.49707 6.5032 2.49707 10.4169C2.49707 14.3305 5.66971 17.5031 9.58336 17.5031C13.497 17.5031 16.6696 14.3305 16.6696 10.4169" stroke="#F2F7FF" stroke-width="1.5" stroke-linecap="round" stroke-linejoin="round"/>
<path d="M15.4445 7.10719L12.8926 4.5553" stroke="#F2F7FF" stroke-width="1.5" stroke-linecap="round" stroke-linejoin="round"/>
</svg>
