<svg width="17" height="16" viewBox="0 0 17 16" fill="none" xmlns="http://www.w3.org/2000/svg">
<circle cx="8.50055" cy="7.99859" r="6.0025" stroke="#99213C" stroke-linecap="round" stroke-linejoin="round"/>
<path d="M5.21638 13.0172L7.64028 10.5933C8.8075 11.0277 10.1214 10.7217 10.9765 9.81634C11.8317 8.91094 12.0623 7.58177 11.5621 6.44121C11.5544 6.42565 11.5397 6.41468 11.5226 6.41162C11.5055 6.40857 11.4879 6.41379 11.4753 6.42571L9.44148 8.4122L8.01868 6.9894L10.0021 5.00601C10.0144 4.99332 10.0199 4.97541 10.0166 4.95798C10.0134 4.94055 10.0019 4.92579 9.98579 4.91839C8.81481 4.41563 7.45601 4.67188 6.54858 5.5666C5.67882 6.41709 5.3992 7.70388 5.83757 8.83863L3.44531 11.2309" stroke="#99213C" stroke-linecap="round" stroke-linejoin="round"/>
</svg>
