<svg width="17" height="16" viewBox="0 0 17 16" fill="none" xmlns="http://www.w3.org/2000/svg">
<path d="M8.48325 7.35017C9.39448 8.26139 9.39448 9.73877 8.48325 10.65C7.57203 11.5612 6.09465 11.5612 5.18342 10.65C4.27219 9.73877 4.27219 8.26139 5.18342 7.35017C6.09465 6.43894 7.57203 6.43894 8.48325 7.35017" stroke="#99213C" stroke-linecap="round" stroke-linejoin="round"/>
<path d="M5.18604 10.6473L6.83337 8.99996V6.80396" stroke="#99213C" stroke-linecap="round" stroke-linejoin="round"/>
<path fill-rule="evenodd" clip-rule="evenodd" d="M14.5 12.6667V5.21867C14.5 4.86533 14.3593 4.526 14.11 4.27667L12.224 2.39067C11.974 2.14067 11.6347 2 11.2813 2H3.83333C3.09667 2 2.5 2.59667 2.5 3.33333V12.6667C2.5 13.4033 3.09667 14 3.83333 14H13.1667C13.9033 14 14.5 13.4033 14.5 12.6667V12.6667Z" stroke="#99213C" stroke-linecap="round" stroke-linejoin="round"/>
<path d="M14.4998 5.33333H11.8332C11.4652 5.33333 11.1665 5.03467 11.1665 4.66667V2" stroke="#99213C" stroke-linecap="round" stroke-linejoin="round"/>
<path d="M11.1665 8.00008H12.4998" stroke="#99213C" stroke-linecap="round" stroke-linejoin="round"/>
<path d="M11.1665 10.0001H12.4998" stroke="#99213C" stroke-linecap="round" stroke-linejoin="round"/>
</svg>
