<svg width="16" height="16" viewBox="0 0 16 16" fill="none" xmlns="http://www.w3.org/2000/svg">
<circle cx="8.00006" cy="7.99981" r="6.0025" stroke="#99213C" stroke-linecap="round" stroke-linejoin="round"/>
<path d="M4.71638 13.0167L7.14028 10.5928C8.3075 11.0272 9.62135 10.7213 10.4765 9.81585C11.3317 8.91045 11.5623 7.58129 11.0621 6.44073C11.0544 6.42516 11.0397 6.41419 11.0226 6.41113C11.0055 6.40808 10.9879 6.4133 10.9753 6.42522L8.94148 8.41171L7.51868 6.98891L9.50208 5.00552C9.51445 4.99283 9.51988 4.97492 9.51664 4.95749C9.5134 4.94007 9.5019 4.9253 9.48579 4.9179C8.31481 4.41514 6.95601 4.67139 6.04858 5.56611C5.17882 6.4166 4.8992 7.70339 5.33757 8.83814L2.94531 11.2304" stroke="#99213C" stroke-linecap="round" stroke-linejoin="round"/>
</svg>
