<svg width="17" height="16" viewBox="0 0 17 16" fill="none" xmlns="http://www.w3.org/2000/svg">
<path fill-rule="evenodd" clip-rule="evenodd" d="M13.1667 14.6668H3.83333C3.09667 14.6668 2.5 14.0702 2.5 13.3335V2.66683C2.5 1.93016 3.09667 1.3335 3.83333 1.3335H13.1667C13.9033 1.3335 14.5 1.93016 14.5 2.66683V13.3335C14.5 14.0702 13.9033 14.6668 13.1667 14.6668Z" stroke="#99213C" stroke-linecap="round" stroke-linejoin="round"/>
<path d="M11.1666 9.99984H5.83331" stroke="#99213C" stroke-linecap="round" stroke-linejoin="round"/>
<path d="M9.83335 11.9998H7.16669" stroke="#99213C" stroke-linecap="round" stroke-linejoin="round"/>
<path d="M8.50003 7.10852L9.5027 7.63518C9.69803 7.73785 9.92603 7.57185 9.8887 7.35452L9.69736 6.23785L10.5087 5.44785C10.6667 5.29385 10.5794 5.02585 10.3614 4.99385L9.24003 4.83118L8.7387 3.81452C8.64136 3.61652 8.3587 3.61652 8.26136 3.81452L7.76003 4.83118L6.6387 4.99452C6.4207 5.02585 6.33336 5.29452 6.49136 5.44852L7.3027 6.23852L7.11136 7.35518C7.07403 7.57252 7.30203 7.73852 7.49736 7.63585L8.50003 7.10852" stroke="#99213C" stroke-linecap="round" stroke-linejoin="round"/>
</svg>
