<svg width="37" height="36" viewBox="0 0 37 36" fill="none" xmlns="http://www.w3.org/2000/svg">
<rect x="0.5" width="36" height="36" rx="18" fill="#EDEEF3"/>
<path d="M15.098 23V21.661L17.724 18.918C18.244 18.372 18.6427 17.9387 18.92 17.618C19.206 17.2887 19.4053 17.007 19.518 16.773C19.6307 16.539 19.687 16.3007 19.687 16.058C19.687 15.6507 19.557 15.33 19.297 15.096C19.0457 14.862 18.7207 14.745 18.322 14.745C17.906 14.745 17.5463 14.8663 17.243 15.109C16.9397 15.343 16.7187 15.6897 16.58 16.149L15.033 15.668C15.137 15.1567 15.3493 14.7147 15.67 14.342C15.9907 13.9607 16.3807 13.6703 16.84 13.471C17.308 13.263 17.802 13.159 18.322 13.159C18.946 13.159 19.492 13.2717 19.96 13.497C20.4367 13.7223 20.805 14.0387 21.065 14.446C21.3337 14.8533 21.468 15.33 21.468 15.876C21.468 16.2227 21.403 16.565 21.273 16.903C21.143 17.241 20.948 17.5877 20.688 17.943C20.428 18.2897 20.09 18.6797 19.674 19.113L17.399 21.505H21.598V23H15.098Z" fill="#4D5168"/>
</svg>
