<svg width="20" height="20" viewBox="0 0 20 20" fill="none" xmlns="http://www.w3.org/2000/svg">
<path d="M14.75 4.45833H17.125" stroke="#1E2028" stroke-width="1.5" stroke-linecap="round" stroke-linejoin="round"/>
<path d="M2.875 4.45833H11.5833" stroke="#1E2028" stroke-width="1.5" stroke-linecap="round" stroke-linejoin="round"/>
<path d="M8.4165 10.0003H17.1248" stroke="#1E2028" stroke-width="1.5" stroke-linecap="round" stroke-linejoin="round"/>
<path d="M2.875 10.0003H5.25" stroke="#1E2028" stroke-width="1.5" stroke-linecap="round" stroke-linejoin="round"/>
<path d="M14.75 15.5413H17.125" stroke="#1E2028" stroke-width="1.5" stroke-linecap="round" stroke-linejoin="round"/>
<path d="M2.875 15.5413H11.5833" stroke="#1E2028" stroke-width="1.5" stroke-linecap="round" stroke-linejoin="round"/>
<path d="M14.2864 3.33875C14.9047 3.95708 14.9047 4.95959 14.2864 5.57792C13.6681 6.19625 12.6656 6.19625 12.0472 5.57792C11.4289 4.95959 11.4289 3.95708 12.0472 3.33875C12.6656 2.72042 13.6681 2.72042 14.2864 3.33875" stroke="#1E2028" stroke-width="1.5" stroke-linecap="round" stroke-linejoin="round"/>
<path d="M7.95292 8.88074C8.57125 9.49907 8.57125 10.5016 7.95292 11.1199C7.33459 11.7382 6.33208 11.7382 5.71375 11.1199C5.09542 10.5016 5.09542 9.49907 5.71375 8.88074C6.33208 8.26241 7.33459 8.26241 7.95292 8.88074" stroke="#1E2028" stroke-width="1.5" stroke-linecap="round" stroke-linejoin="round"/>
<path d="M14.2864 14.4218C14.9047 15.0401 14.9047 16.0426 14.2864 16.6609C13.6681 17.2793 12.6656 17.2793 12.0472 16.6609C11.4289 16.0426 11.4289 15.0401 12.0472 14.4218C12.6656 13.8034 13.6681 13.8034 14.2864 14.4218" stroke="#1E2028" stroke-width="1.5" stroke-linecap="round" stroke-linejoin="round"/>
</svg>
