<svg width="16" height="16" viewBox="0 0 16 16" fill="none" xmlns="http://www.w3.org/2000/svg">
<path d="M12.6673 5.33333H10.0007C9.63265 5.33333 9.33398 5.03467 9.33398 4.66667V2" stroke="#1B3CCE" stroke-linecap="round" stroke-linejoin="round"/>
<path d="M3.33398 8.66667V3.33333C3.33398 2.59667 3.93065 2 4.66732 2H9.44865C9.80198 2 10.1413 2.14067 10.3913 2.39067L12.2767 4.276C12.5267 4.526 12.6673 4.86533 12.6673 5.21867V12.6667C12.6673 13.4033 12.0707 14 11.334 14H8.66732" stroke="#1B3CCE" stroke-linecap="round" stroke-linejoin="round"/>
<path d="M6.83146 12.9262C6.16146 13.5962 5.0768 13.5962 4.4068 12.9262C3.7368 12.2562 3.7368 11.1715 4.4068 10.5015C5.0768 9.83152 6.16146 9.83152 6.83146 10.5015C7.5008 11.1715 7.5008 12.2575 6.83146 12.9262" stroke="#1B3CCE" stroke-linecap="round" stroke-linejoin="round"/>
<path d="M6 7.33333H10" stroke="#1B3CCE" stroke-linecap="round" stroke-linejoin="round"/>
<path d="M8.66602 9.33333H9.99935" stroke="#1B3CCE" stroke-linecap="round" stroke-linejoin="round"/>
<path d="M3.33398 13.9998L4.40732 12.9258" stroke="#1B3CCE" stroke-linecap="round" stroke-linejoin="round"/>
</svg>
