<svg width="17" height="16" viewBox="0 0 17 16" fill="none" xmlns="http://www.w3.org/2000/svg">
<path d="M8.50046 2.64424V2.01416" stroke="#1B3CCE" stroke-linecap="round" stroke-linejoin="round"/>
<path d="M12.5018 3.99831L13.1319 3.36822" stroke="#1B3CCE" stroke-linecap="round" stroke-linejoin="round"/>
<path d="M4.4991 3.99831L3.86901 3.36822" stroke="#1B3CCE" stroke-linecap="round" stroke-linejoin="round"/>
<path d="M14.4862 7.99998H15.1163" stroke="#1B3CCE" stroke-linecap="round" stroke-linejoin="round"/>
<path d="M1.86804 7.99998H2.49813" stroke="#1B3CCE" stroke-linecap="round" stroke-linejoin="round"/>
<path d="M9.83445 8.66693V10.0008" stroke="#1B3CCE" stroke-linecap="round" stroke-linejoin="round"/>
<path d="M11.8355 12.0016V8.50291C11.789 6.70698 10.2967 5.28805 8.50074 5.33218C6.70475 5.28805 5.21243 6.70698 5.16602 8.50291V12.0016" stroke="#1B3CCE" stroke-linecap="round" stroke-linejoin="round"/>
<path fill-rule="evenodd" clip-rule="evenodd" d="M12.2652 12.0016H4.67413C4.38141 12.0016 4.1229 12.1925 4.03673 12.4723L3.83131 13.1392C3.769 13.3415 3.80643 13.5614 3.93216 13.7317C4.0579 13.902 4.25701 14.0025 4.4687 14.0025H12.501C12.7176 14.0025 12.9206 13.8974 13.0456 13.7206C13.1706 13.5438 13.202 13.3173 13.1298 13.1132L12.894 12.4462C12.7998 12.1798 12.5478 12.0016 12.2652 12.0016Z" stroke="#1B3CCE" stroke-linecap="round" stroke-linejoin="round"/>
</svg>
