<svg width="17" height="16" viewBox="0 0 17 16" fill="none" xmlns="http://www.w3.org/2000/svg">
<path fill-rule="evenodd" clip-rule="evenodd" d="M7.73776 8.76268C6.95776 7.98268 6.36976 7.10935 5.97909 6.22335C5.89642 6.03602 5.94509 5.81668 6.08976 5.67202L6.63576 5.12668C7.08309 4.67935 7.08309 4.04668 6.69242 3.65602L5.90976 2.87335C5.38909 2.35268 4.54509 2.35268 4.02442 2.87335L3.58976 3.30802C3.09576 3.80202 2.88976 4.51468 3.02309 5.22135C3.35242 6.96335 4.36442 8.87068 5.99709 10.5033C7.62976 12.136 9.53709 13.148 11.2791 13.4773C11.9858 13.6107 12.6984 13.4047 13.1924 12.9107L13.6264 12.4767C14.1471 11.956 14.1471 11.112 13.6264 10.5913L12.8444 9.80935C12.4538 9.41868 11.8204 9.41868 11.4304 9.80935L10.8284 10.412C10.6838 10.5567 10.4644 10.6053 10.2771 10.5227C9.39109 10.1313 8.51776 9.54268 7.73776 8.76268Z" stroke="#1B3CCE" stroke-linecap="round" stroke-linejoin="round"/>
</svg>
