<svg width="17" height="16" viewBox="0 0 17 16" fill="none" xmlns="http://www.w3.org/2000/svg">
<path d="M14.4872 7.26051C14.4872 9.83647 10.8169 13.1297 9.25269 14.4163C8.84678 14.7501 8.27323 14.7501 7.86732 14.4163C6.30313 13.1297 2.63281 9.83647 2.63281 7.26051C2.63281 3.98701 5.28651 1.33331 8.56 1.33331C11.8335 1.33331 14.4872 3.98701 14.4872 7.26051Z" stroke="#1B3CCE"/>
<path d="M10.3382 7.26051C10.3382 8.24255 9.54205 9.03866 8.56 9.03866C7.57796 9.03866 6.78185 8.24255 6.78185 7.26051C6.78185 6.27846 7.57796 5.48235 8.56 5.48235C9.54205 5.48235 10.3382 6.27846 10.3382 7.26051Z" stroke="#1B3CCE"/>
</svg>
