<svg width="17" height="16" viewBox="0 0 17 16" fill="none" xmlns="http://www.w3.org/2000/svg">
<path d="M7.83333 2.6665H5.83333C3.99238 2.6665 2.5 4.15889 2.5 5.99984V10.6665C2.5 12.5075 3.99238 13.9998 5.83333 13.9998H11.1667C13.0076 13.9998 14.5 12.5075 14.5 10.6665V6.6665" stroke="#1B3CCE" stroke-linecap="round" stroke-linejoin="round"/>
<path d="M5.83398 10.6668H11.1673" stroke="#1B3CCE" stroke-linecap="round" stroke-linejoin="round"/>
<path fill-rule="evenodd" clip-rule="evenodd" d="M8.48156 5.46669L11.6554 2.29289C12.0459 1.90237 12.6791 1.90237 13.0696 2.29289L13.541 2.7643C13.9315 3.15482 13.9315 3.78799 13.541 4.17851L10.3672 7.35233C10.1122 7.60733 9.78139 7.77274 9.4244 7.82374L8.21446 7.99659C8.11059 8.01142 8.00581 7.97649 7.93162 7.9023C7.85743 7.82812 7.8225 7.72333 7.83734 7.61947L8.01018 6.40953C8.06117 6.05253 8.22657 5.7217 8.48156 5.46669Z" stroke="#1B3CCE" stroke-linecap="round" stroke-linejoin="round"/>
<path d="M12.6395 5.07995L10.7539 3.19434" stroke="#1B3CCE" stroke-linecap="round" stroke-linejoin="round"/>
</svg>
