<svg width="20" height="20" viewBox="0 0 20 20" fill="none" xmlns="http://www.w3.org/2000/svg">
<path fill-rule="evenodd" clip-rule="evenodd" d="M15.9331 5.1011L14.0643 3.23223C13.5954 2.76339 12.9595 2.5 12.2965 2.5H5.83203C4.45132 2.5 3.33203 3.61929 3.33203 5V15C3.33203 16.3807 4.45132 17.5 5.83203 17.5H14.1654C15.5461 17.5 16.6654 16.3807 16.6654 15V6.86887C16.6654 6.20583 16.402 5.56994 15.9331 5.1011Z" stroke="#F2F7FF" stroke-width="1.5" stroke-linecap="round" stroke-linejoin="round"/>
<path d="M16.6654 7.08333H13.7487C12.8282 7.08333 12.082 6.33714 12.082 5.41667V2.5" stroke="#F2F7FF" stroke-width="1.5" stroke-linecap="round" stroke-linejoin="round"/>
<path d="M10.832 10.8332H13.332" stroke="#F2F7FF" stroke-width="1.5" stroke-linecap="round" stroke-linejoin="round"/>
<path d="M10.832 10.8332H13.332" stroke="#F2F7FF" stroke-width="1.5" stroke-linecap="round" stroke-linejoin="round"/>
<path d="M6.59766 10.4165L7.43099 11.2498" stroke="#F2F7FF" stroke-width="1.5" stroke-linecap="round" stroke-linejoin="round"/>
<path d="M8.67969 10L7.42969 11.25" stroke="#F2F7FF" stroke-width="1.5" stroke-linecap="round" stroke-linejoin="round"/>
<path d="M10.832 14.1667H13.332" stroke="#F2F7FF" stroke-width="1.5" stroke-linecap="round" stroke-linejoin="round"/>
<path d="M6.62891 14.1667H13.3303" stroke="#F2F7FF" stroke-width="1.5" stroke-linecap="round" stroke-linejoin="round"/>
</svg>
