<svg width="17" height="16" viewBox="0 0 17 16" fill="none" xmlns="http://www.w3.org/2000/svg">
<path d="M9.67916 7.32165C10.33 7.97253 10.33 9.0278 9.67916 9.67867C9.02829 10.3295 7.97301 10.3295 7.32214 9.67867C6.67127 9.0278 6.67127 7.97252 7.32214 7.32165C7.97301 6.67078 9.02829 6.67078 9.67916 7.32165" stroke="#1B3CCE" stroke-linecap="round" stroke-linejoin="round"/>
<path d="M13.3374 3.32165C13.9882 3.97253 13.9882 5.0278 13.3374 5.67867C12.6865 6.32955 11.6312 6.32955 10.9803 5.67867C10.3295 5.0278 10.3295 3.97252 10.9803 3.32165C11.6312 2.67078 12.6865 2.67078 13.3374 3.32165" stroke="#1B3CCE" stroke-linecap="round" stroke-linejoin="round"/>
<path d="M12.5 8.16699C13.522 8.16699 14.5 8.52233 15.1667 9.05566" stroke="#1B3CCE" stroke-linecap="round" stroke-linejoin="round"/>
<path d="M6.02096 3.32165C6.67183 3.97253 6.67183 5.0278 6.02096 5.67867C5.37008 6.32955 4.31481 6.32955 3.66394 5.67867C3.01306 5.0278 3.01306 3.97252 3.66394 3.32165C4.31481 2.67078 5.37008 2.67078 6.02096 3.32165" stroke="#1B3CCE" stroke-linecap="round" stroke-linejoin="round"/>
<path d="M1.83398 9.05566C2.50065 8.52233 3.47865 8.16699 4.50065 8.16699" stroke="#1B3CCE" stroke-linecap="round" stroke-linejoin="round"/>
<path d="M11.5608 13.167C10.7841 12.5663 9.66812 12.167 8.50012 12.167C7.33212 12.167 6.21612 12.5663 5.43945 13.167" stroke="#1B3CCE" stroke-linecap="round" stroke-linejoin="round"/>
</svg>
