<svg width="20" height="20" viewBox="0 0 20 20" fill="none" xmlns="http://www.w3.org/2000/svg">
<path d="M9.41699 9.40479C9.66356 9.92098 10.0796 10.337 10.5958 10.5836" stroke="#DB195A" stroke-width="1.5" stroke-linecap="round" stroke-linejoin="round"/>
<path d="M12.7432 10.8336H13.927" stroke="#DB195A" stroke-width="1.5" stroke-linecap="round" stroke-linejoin="round"/>
<path d="M17.253 9.40479C17.0065 9.92098 16.5904 10.337 16.0742 10.5836" stroke="#DB195A" stroke-width="1.5" stroke-linecap="round" stroke-linejoin="round"/>
<path d="M17.5038 7.25731V6.07349" stroke="#DB195A" stroke-width="1.5" stroke-linecap="round" stroke-linejoin="round"/>
<path d="M16.0742 2.74707C16.5904 2.99363 17.0065 3.4097 17.253 3.92589" stroke="#DB195A" stroke-width="1.5" stroke-linecap="round" stroke-linejoin="round"/>
<path d="M17.5038 6.07349V7.25731" stroke="#DB195A" stroke-width="1.5" stroke-linecap="round" stroke-linejoin="round"/>
<path d="M13.927 2.49692H12.7432" stroke="#DB195A" stroke-width="1.5" stroke-linecap="round" stroke-linejoin="round"/>
<path d="M9.41699 3.92589C9.66356 3.4097 10.0796 2.99363 10.5958 2.74707" stroke="#DB195A" stroke-width="1.5" stroke-linecap="round" stroke-linejoin="round"/>
<path d="M12.4502 5.78076L14.2193 7.54983" stroke="#DB195A" stroke-width="1.5" stroke-linecap="round" stroke-linejoin="round"/>
<path d="M12.4502 7.54983L14.2193 5.78076" stroke="#DB195A" stroke-width="1.5" stroke-linecap="round" stroke-linejoin="round"/>
<path d="M17.5033 12.501V13.3347C17.5033 15.6368 15.6371 17.5031 13.3349 17.5031H6.66547C4.36333 17.5031 2.49707 15.6368 2.49707 13.3347V6.66523C2.49707 4.36308 4.36333 2.49683 6.66547 2.49683H7.49915" stroke="#DB195A" stroke-width="1.5" stroke-linecap="round" stroke-linejoin="round"/>
<path d="M9.16684 6.07349V7.25731" stroke="#DB195A" stroke-width="1.5" stroke-linecap="round" stroke-linejoin="round"/>
</svg>
