<svg width="16" height="16" viewBox="0 0 16 16" fill="none" xmlns="http://www.w3.org/2000/svg">
<path d="M2 11.6667L1.46967 11.1363L1.25 11.356V11.6667H2ZM5 14V14.75H5.75V14H5ZM5 13V12.25H4.25V13H5ZM6.33333 13V13.75H7.08333V13H6.33333ZM6.33333 11.3333V10.5833H5.58333V11.3333H6.33333ZM7.83333 11.3333V12.0833H8.58333V11.3333H7.83333ZM2 14H1.25V14.75H2V14ZM10.3333 3.91667C9.91912 3.91667 9.58333 4.25245 9.58333 4.66667C9.58333 5.08088 9.91912 5.41667 10.3333 5.41667V3.91667ZM10.5833 5.66667C10.5833 6.08088 10.9191 6.41667 11.3333 6.41667C11.7475 6.41667 12.0833 6.08088 12.0833 5.66667H10.5833ZM5.803 6.803L5.76967 6.83634L6.83033 7.897L6.86366 7.86366L5.803 6.803ZM5.76967 6.83634L1.46967 11.1363L2.53033 12.197L6.83033 7.897L5.76967 6.83634ZM5.75 14V13H4.25V14H5.75ZM5 13.75H6.33333V12.25H5V13.75ZM7.08333 13V11.3333H5.58333V13H7.08333ZM6.33333 12.0833H7.83333V10.5833H6.33333V12.0833ZM8.58333 11.3333V9.4H7.08333V11.3333H8.58333ZM8.58333 9.4V9.33333H7.08333V9.4H8.58333ZM1.25 11.6667V14H2.75V11.6667H1.25ZM5 13.25H2V14.75H5V13.25ZM13.25 6C13.25 7.79493 11.7949 9.25 10 9.25V10.75C12.6234 10.75 14.75 8.62335 14.75 6H13.25ZM6.75 6C6.75 4.20507 8.20507 2.75 10 2.75V1.25C7.37665 1.25 5.25 3.37665 5.25 6H6.75ZM10 2.75C11.7949 2.75 13.25 4.20507 13.25 6H14.75C14.75 3.37665 12.6234 1.25 10 1.25V2.75ZM7.00713 7.11673C6.85952 6.69911 6.75 6.32577 6.75 6H5.25C5.25 6.60926 5.44567 7.20014 5.59287 7.6166L7.00713 7.11673ZM10 9.25C9.41879 9.25 8.69729 9.03333 8.20888 8.7508L7.45779 10.0492C8.14607 10.4474 9.12406 10.75 10 10.75V9.25ZM10.3333 4.66667C10.3333 5.41667 10.333 5.41667 10.3326 5.41667C10.3325 5.41667 10.3321 5.41667 10.3319 5.41667C10.3314 5.41666 10.3309 5.41666 10.3305 5.41666C10.3295 5.41666 10.3286 5.41665 10.3277 5.41664C10.3258 5.41663 10.3241 5.41661 10.3224 5.41658C10.319 5.41653 10.3159 5.41645 10.313 5.41636C10.3072 5.41617 10.3024 5.41592 10.2984 5.41566C10.2906 5.41513 10.2861 5.41456 10.2846 5.41434C10.2816 5.41392 10.2893 5.41479 10.3045 5.41985C10.3322 5.42909 10.3946 5.45529 10.4697 5.53033L11.5303 4.46967C11.272 4.21138 11.0011 4.07091 10.7788 3.99682C10.669 3.96021 10.5726 3.94025 10.4967 3.92941C10.4587 3.92398 10.4256 3.9208 10.3982 3.91898C10.3845 3.91807 10.3722 3.91749 10.3613 3.91714C10.3559 3.91696 10.3509 3.91685 10.3462 3.91677C10.3439 3.91673 10.3416 3.91671 10.3395 3.91669C10.3384 3.91668 10.3374 3.91668 10.3363 3.91667C10.3358 3.91667 10.3353 3.91667 10.3348 3.91667C10.3346 3.91667 10.3342 3.91667 10.3341 3.91667C10.3337 3.91667 10.3333 3.91667 10.3333 4.66667ZM10.4697 5.53033C10.5447 5.60537 10.5709 5.66778 10.5802 5.6955C10.5852 5.71067 10.5861 5.71839 10.5857 5.71544C10.5854 5.7139 10.5849 5.70944 10.5843 5.70158C10.5841 5.69764 10.5838 5.69281 10.5836 5.68702C10.5835 5.68413 10.5835 5.68099 10.5834 5.6776C10.5834 5.67591 10.5834 5.67415 10.5834 5.67233C10.5833 5.67142 10.5833 5.67049 10.5833 5.66955C10.5833 5.66908 10.5833 5.6686 10.5833 5.66812C10.5833 5.66788 10.5833 5.66752 10.5833 5.6674C10.5833 5.66703 10.5833 5.66667 11.3333 5.66667C12.0833 5.66667 12.0833 5.6663 12.0833 5.66593C12.0833 5.6658 12.0833 5.66543 12.0833 5.66518C12.0833 5.66468 12.0833 5.66418 12.0833 5.66366C12.0833 5.66264 12.0833 5.66159 12.0833 5.66052C12.0833 5.65837 12.0833 5.65613 12.0832 5.6538C12.0832 5.64913 12.083 5.64408 12.0829 5.63866C12.0825 5.62783 12.0819 5.61551 12.081 5.6018C12.0792 5.57441 12.076 5.54131 12.0706 5.50331C12.0597 5.42744 12.0398 5.331 12.0032 5.22116C11.9291 4.99888 11.7886 4.72796 11.5303 4.46967L10.4697 5.53033Z" fill="#6B6F8C"/>
</svg>
