<svg width="16" height="16" viewBox="0 0 16 16" fill="none" xmlns="http://www.w3.org/2000/svg">
<path d="M7.61918 1.629C7.71998 1.23483 8.27986 1.23483 8.38066 1.62901L8.90806 3.69136C9.33505 5.36109 10.6389 6.66491 12.3086 7.0919L14.371 7.6193C14.7651 7.7201 14.7651 8.27998 14.371 8.38078L12.3086 8.90818C10.6389 9.33517 9.33505 10.639 8.90806 12.3087L8.38066 14.3711C8.27986 14.7653 7.71997 14.7652 7.61917 14.3711L7.09178 12.3087C6.66479 10.639 5.36097 9.33517 3.69124 8.90818L1.62888 8.38078C1.23471 8.27998 1.23471 7.7201 1.62888 7.6193L3.69124 7.0919C5.36097 6.66491 6.66479 5.36109 7.09178 3.69136L7.61918 1.629Z" stroke="#68B44E" stroke-width="1.5" stroke-linecap="round" stroke-linejoin="round"/>
</svg>
