<svg width="14" height="16" viewBox="0 0 14 16" fill="none" xmlns="http://www.w3.org/2000/svg">
<path d="M12.9872 7.26044C12.9872 9.83641 9.31688 13.1297 7.75269 14.4162C7.34678 14.7501 6.77323 14.7501 6.36732 14.4162C4.80313 13.1297 1.13281 9.83641 1.13281 7.26044C1.13281 3.98695 3.78651 1.33325 7.06 1.33325C10.3335 1.33325 12.9872 3.98695 12.9872 7.26044Z" stroke="#99213C"/>
<path d="M8.83816 7.26044C8.83816 8.24249 8.04205 9.0386 7.06 9.0386C6.07796 9.0386 5.28185 8.24249 5.28185 7.26044C5.28185 6.2784 6.07796 5.48229 7.06 5.48229C8.04205 5.48229 8.83816 6.2784 8.83816 7.26044Z" stroke="#99213C"/>
</svg>
