<svg width="58" height="58" viewBox="0 0 58 58" fill="none" xmlns="http://www.w3.org/2000/svg">
<rect width="58" height="58" rx="10.8891" fill="#AB0F3E"/>
<path fill-rule="evenodd" clip-rule="evenodd" d="M32.5508 15.2424L45.954 38.7011C47.5115 41.4276 45.5428 44.8209 42.4033 44.8209H15.5968C12.4555 44.8209 10.4868 41.4276 12.046 38.7011L25.4493 15.2424C27.019 12.4931 30.981 12.4931 32.5508 15.2424Z" stroke="white" stroke-width="1.36114" stroke-linecap="round" stroke-linejoin="round"/>
<path fill-rule="evenodd" clip-rule="evenodd" d="M28.027 30.4039C27.0697 31.3611 25.458 31.0986 24.8525 29.8894L24.1385 28.4579C22.8942 29.7021 22.1942 31.3909 22.1942 33.1531V33.3194C22.1942 37.0784 25.241 40.1251 29 40.1251C32.759 40.1251 35.8057 37.0784 35.8057 33.3194C35.8057 31.4749 34.971 29.7301 33.5342 28.5734L32.479 27.7229C31.4115 26.8619 30.6642 25.6666 30.3597 24.3296L29.9712 22.6251C28.1495 24.4469 27.3585 27.0596 27.8642 29.5866L28.027 30.4039Z" stroke="white" stroke-width="1.36114" stroke-linecap="round" stroke-linejoin="round"/>
</svg>
