<svg width="235" height="92" viewBox="0 0 235 92" fill="none" xmlns="http://www.w3.org/2000/svg">
<g clip-path="url(#clip0_6498_85497)">
<path d="M0 92V68.4873C12.7186 68.4873 23.4683 58.193 23.4683 46H46.9498C46.9498 58.3187 41.935 69.9295 32.8239 78.6955C23.9044 87.2763 12.2495 92.0066 0 92.0066L0 92Z" fill="url(#paint0_linear_6498_85497)"/>
<path d="M23.4881 46H0C0 33.6879 5.02137 22.0771 14.1259 13.3111C23.0454 4.72372 34.7003 0 46.9498 0V23.5127C34.2312 23.5127 23.4881 33.807 23.4881 46Z" fill="url(#paint1_linear_6498_85497)"/>
<path d="M183.082 60.9255C182.282 60.9255 181.602 60.813 181.04 60.5881C180.479 60.3631 179.897 59.9331 179.296 59.2913C179.137 59.126 178.761 58.6231 178.166 57.7895C177.466 56.8104 176.911 56.1554 176.514 55.8246C176.118 55.4938 175.741 55.3285 175.384 55.3285C175.147 55.3285 174.843 55.4542 174.479 55.6989C174.116 55.9437 173.812 56.2348 173.568 56.559C173.323 56.8832 173.198 57.1677 173.198 57.3992C173.198 57.7035 173.33 57.9682 173.581 58.1931C173.838 58.4181 174.248 58.6231 174.803 58.815C175.754 59.1326 176.455 59.4369 176.911 59.728C177.367 60.0191 177.704 60.3697 177.935 60.7865C178.166 61.2033 178.278 61.6863 178.278 62.2486C178.278 63.5652 177.75 64.5642 176.686 65.2588C175.622 65.9469 174.023 66.2909 171.883 66.2909H166.63C165.784 66.2909 165.011 66.0726 164.324 65.6426C163.637 65.2125 163.102 64.6039 162.719 63.8298C162.336 63.0558 162.151 62.1759 162.151 61.2033C162.151 59.7545 162.388 58.3122 162.871 56.8898H165.831C165.639 57.5051 165.52 58.0939 165.454 58.643C165.395 59.1921 165.362 59.8868 165.362 60.7138C165.362 61.2232 165.487 61.7061 165.738 62.156C165.989 62.6125 166.32 62.9631 166.736 63.2212C167.152 63.4792 167.575 63.6049 168.018 63.6049H171.87C173.072 63.6049 173.898 63.5123 174.334 63.3336C174.77 63.155 174.995 62.8441 174.995 62.4206C174.995 62.1692 174.876 61.9509 174.631 61.7723C174.387 61.5937 173.997 61.4349 173.462 61.2893C172.213 60.9718 171.348 60.5484 170.859 60.0125C170.37 59.4832 170.132 58.7687 170.132 57.8689C170.132 57.0949 170.416 56.2745 170.978 55.4211C171.539 54.5676 172.266 53.8465 173.158 53.2643C174.05 52.6821 174.909 52.3844 175.728 52.3844C176.204 52.3844 176.646 52.477 177.056 52.6623C177.459 52.8475 177.855 53.1254 178.239 53.5025C178.622 53.8796 179.243 54.6801 180.102 55.9173C180.782 56.8964 181.331 57.5315 181.747 57.816C182.163 58.1005 182.613 58.246 183.102 58.246H183.207C183.287 58.246 183.326 58.2725 183.326 58.332V60.813C183.326 60.8858 183.287 60.9188 183.207 60.9188H183.102L183.082 60.9255ZM168.348 71.7953C167.892 71.7953 167.529 71.6498 167.258 71.3653C166.987 71.0808 166.855 70.6905 166.855 70.1943C166.855 69.6981 166.987 69.3011 167.251 69.01C167.515 68.7255 167.879 68.58 168.341 68.58C168.804 68.58 169.161 68.7189 169.418 69.0034C169.676 69.2879 169.808 69.6848 169.808 70.1876C169.808 70.6905 169.676 71.0874 169.405 71.3719C169.134 71.6564 168.784 71.7887 168.341 71.7887L168.348 71.7953ZM172.134 71.7953C171.678 71.7953 171.315 71.6498 171.044 71.3653C170.773 71.0808 170.641 70.6905 170.641 70.1943C170.641 69.6981 170.773 69.3011 171.037 69.01C171.301 68.7255 171.665 68.58 172.127 68.58C172.59 68.58 172.953 68.7255 173.217 69.01C173.475 69.2945 173.607 69.6915 173.607 70.1943C173.607 70.6971 173.468 71.0808 173.198 71.3653C172.927 71.6498 172.57 71.7953 172.127 71.7953H172.134Z" fill="#1E2028"/>
<path d="M182.969 60.9254C182.897 60.9254 182.864 60.8923 182.864 60.8196V58.3386C182.864 58.2791 182.897 58.2526 182.969 58.2526H185.758V49.8836H189.074V58.2526H190.442C190.515 58.2526 190.548 58.2791 190.548 58.3386V60.8196C190.548 60.8923 190.515 60.9254 190.442 60.9254H182.969ZM185.335 47.9583C184.879 47.9583 184.515 47.8128 184.245 47.5283C183.974 47.2438 183.842 46.8535 183.842 46.3573C183.842 45.8611 183.974 45.4642 184.238 45.1731C184.502 44.8886 184.866 44.743 185.328 44.743C185.791 44.743 186.147 44.882 186.405 45.1665C186.663 45.4509 186.795 45.8479 186.795 46.3507C186.795 46.8535 186.663 47.2504 186.392 47.5349C186.121 47.8194 185.771 47.9517 185.328 47.9517L185.335 47.9583ZM189.121 47.9583C188.665 47.9583 188.301 47.8128 188.03 47.5283C187.759 47.2438 187.627 46.8535 187.627 46.3573C187.627 45.8611 187.759 45.4642 188.024 45.1731C188.288 44.8886 188.651 44.743 189.114 44.743C189.576 44.743 189.94 44.8886 190.204 45.1731C190.462 45.4576 190.594 45.8545 190.594 46.3573C190.594 46.8601 190.455 47.2438 190.184 47.5283C189.913 47.8128 189.557 47.9583 189.114 47.9583H189.121Z" fill="#1E2028"/>
<path d="M205.585 58.246C205.658 58.246 205.691 58.2725 205.691 58.332V60.8129C205.691 60.8857 205.658 60.9188 205.585 60.9188H190.211C190.138 60.9188 190.105 60.8857 190.105 60.8129V58.332C190.105 58.2725 190.138 58.246 190.211 58.246H193.395C192.675 57.3992 192.318 56.4134 192.318 55.3019C192.318 53.6414 192.893 52.3182 194.036 51.339C195.179 50.3599 196.778 49.8769 198.826 49.8769H202.797V58.246H205.585ZM199.487 58.246V52.563H198.899C197.901 52.563 197.122 52.8144 196.573 53.3106C196.025 53.8068 195.747 54.5345 195.747 55.4872C195.747 56.3737 196.012 57.0551 196.547 57.5381C197.082 58.0144 197.848 58.2592 198.859 58.2592H199.494L199.487 58.246ZM198.595 47.9583C198.133 47.9583 197.763 47.8128 197.498 47.5283C197.227 47.2438 197.095 46.8535 197.095 46.3573C197.095 45.8611 197.227 45.4642 197.492 45.1731C197.756 44.8886 198.126 44.743 198.595 44.743C199.064 44.743 199.401 44.882 199.665 45.1665C199.93 45.4509 200.062 45.8479 200.062 46.3507C200.062 46.8535 199.923 47.2372 199.652 47.5217C199.381 47.8062 199.025 47.9517 198.588 47.9517L198.595 47.9583Z" fill="#1E2028"/>
<path d="M205.374 60.9254C205.301 60.9254 205.268 60.8923 205.268 60.8195V58.3386C205.268 58.2791 205.301 58.2526 205.374 58.2526H208.823V49.8835H212.14V58.2526H215.489C215.562 58.2526 215.595 58.2791 215.595 58.3386V60.8195C215.595 60.8923 215.562 60.9254 215.489 60.9254H205.374ZM208.354 66.5026C207.898 66.5026 207.534 66.357 207.264 66.0725C206.993 65.788 206.86 65.3977 206.86 64.9015C206.86 64.4053 206.993 64.0084 207.257 63.7173C207.521 63.4328 207.885 63.2873 208.347 63.2873C208.81 63.2873 209.16 63.4262 209.424 63.7107C209.688 63.9952 209.814 64.3921 209.814 64.8949C209.814 65.3977 209.682 65.7947 209.411 66.0791C209.14 66.357 208.79 66.4959 208.347 66.4959L208.354 66.5026ZM212.14 66.5026C211.684 66.5026 211.32 66.357 211.049 66.0725C210.778 65.788 210.646 65.3977 210.646 64.9015C210.646 64.4053 210.778 64.0084 211.043 63.7173C211.307 63.4262 211.67 63.2873 212.133 63.2873C212.595 63.2873 212.959 63.4328 213.223 63.7173C213.481 64.0018 213.613 64.3987 213.613 64.9015C213.613 65.4043 213.474 65.788 213.203 66.0725C212.932 66.357 212.576 66.5026 212.133 66.5026H212.14Z" fill="#1E2028"/>
<path d="M214.287 60.9254C214.214 60.9254 214.181 60.8923 214.181 60.8195V58.3386C214.181 58.2791 214.214 58.2526 214.287 58.2526H217.075V51.6301H220.392V58.2526H222.288C223.028 58.2526 223.57 58.0475 223.913 57.6373C224.257 57.2271 224.429 56.5722 224.429 55.6724V51.6301H227.745V55.9304C227.745 56.2943 227.726 56.6251 227.679 56.936C228.043 57.4256 228.406 57.763 228.77 57.9615C229.133 58.16 229.602 58.2526 230.17 58.2526H231.551V49.8835H234.868V60.932H230.236C228.981 60.932 227.818 60.3697 226.741 59.2516C225.909 60.3697 224.667 60.932 223.021 60.932H214.287V60.9254Z" fill="#1E2028"/>
<path d="M80.2758 60.9187C79.6085 60.9187 78.994 60.8063 78.4324 60.588C77.8708 60.3696 77.2894 59.9661 76.6882 59.3839C76.3446 59.8404 75.9019 60.2108 75.3602 60.4953C74.8184 60.7798 74.1775 60.9187 73.4375 60.9187H70.8277C70.8277 62.6786 70.3784 64.0083 69.4931 64.9147C68.6011 65.8211 67.2004 66.2776 65.2844 66.2776H63.6855C62.3046 66.2776 61.2144 65.7682 60.4084 64.7493C59.6023 63.7305 59.1993 62.3345 59.1993 60.5549C59.1993 59.6419 59.2786 58.7091 59.4371 57.7696C59.5957 56.8301 59.8203 56.0032 60.1111 55.2887H61.961C61.4523 56.5721 61.2012 58.3253 61.2012 60.5483C61.2012 61.8185 61.4523 62.7976 61.961 63.4923C62.4698 64.1804 63.1833 64.5244 64.1017 64.5244H65.1919C66.4803 64.5244 67.4317 64.2333 68.0329 63.6445C68.6342 63.0557 68.9381 62.1691 68.9381 60.9783V51.8286H70.8277V59.1722H73.2327C73.9528 59.1722 74.5078 58.934 74.9109 58.4576C75.3073 57.9813 75.5121 57.3594 75.5121 56.592V51.8286H77.4017V57.1874L77.3819 57.4388C77.7519 58.0872 78.1616 58.537 78.6108 58.7884C79.0601 59.0398 79.6217 59.1722 80.289 59.1722H81.6369V50.0952H83.5397V59.1722H86.5195C86.5922 59.1722 86.6252 59.1986 86.6252 59.2582V60.8063C86.6252 60.8791 86.5922 60.9121 86.5195 60.9121H80.289L80.2758 60.9187Z" fill="#1E2028"/>
<path d="M90.3186 59.1788C90.3978 59.1788 90.4375 59.2053 90.4375 59.2648V60.8129C90.4375 60.8857 90.3978 60.9188 90.3186 60.9188H86.2949C86.2222 60.9188 86.1891 60.8857 86.1891 60.8129V59.2648C86.1891 59.2053 86.2222 59.1788 86.2949 59.1788H90.3186Z" fill="#1E2028"/>
<path d="M143.684 59.1788C143.763 59.1788 143.803 59.2053 143.803 59.2648V60.8129C143.803 60.8857 143.763 60.9188 143.684 60.9188H90.1005C90.0278 60.9188 89.9948 60.8857 89.9948 60.8129V59.2648C89.9948 59.2053 90.0278 59.1788 90.1005 59.1788H143.684Z" fill="#1E2028"/>
<path d="M143.466 60.9188C143.393 60.9188 143.36 60.8857 143.36 60.8129V59.2648C143.36 59.2053 143.393 59.1788 143.466 59.1788H146.406V43.969H148.388V59.1788H151.295C151.368 59.1788 151.401 59.2053 151.401 59.2648V60.8129C151.401 60.8857 151.368 60.9188 151.295 60.9188H143.472H143.466Z" fill="#1E2028"/>
<path d="M151.057 60.9188C150.985 60.9188 150.952 60.8858 150.952 60.813V59.2649C150.952 59.2053 150.985 59.1789 151.057 59.1789H153.997V50.1019H155.98V60.9188H151.064H151.057ZM154.889 65.3845C154.506 65.3845 154.202 65.2655 153.978 65.0339C153.753 64.8023 153.641 64.4716 153.641 64.0415C153.641 63.6115 153.753 63.2807 153.971 63.0491C154.189 62.8176 154.5 62.6985 154.889 62.6985C155.279 62.6985 155.596 62.8176 155.814 63.0624C156.032 63.3072 156.138 63.6313 156.138 64.0349C156.138 64.4385 156.032 64.7693 155.814 65.0074C155.596 65.2522 155.286 65.3713 154.889 65.3713V65.3845Z" fill="#1E2028"/>
<path d="M71.2704 25.1535C70.656 24.128 68.9646 23.1555 67.0221 23.1555C64.5114 23.1555 63.3089 24.2074 63.3089 25.5372C63.3089 27.0985 65.1523 27.5352 67.2996 27.7932C71.0326 28.2563 74.5145 29.2288 74.5145 33.5093C74.5145 37.5053 70.9863 39.2254 66.989 39.2254C63.3287 39.2254 60.5141 38.1007 59.1861 34.8192L62.0007 33.3571C62.7935 35.3286 64.8682 36.2019 67.0419 36.2019C69.2156 36.2019 71.1647 35.461 71.1647 33.5093C71.1647 31.8156 69.4006 31.1276 67.0221 30.8696C63.3618 30.4329 59.9856 29.4604 59.9856 25.4379C59.9856 21.7463 63.6194 20.2379 66.923 20.2114C69.7111 20.2114 72.605 21.0053 73.9595 23.7708L71.2704 25.1535Z" fill="#1E2028"/>
<path d="M89.4861 35.3749H80.1239L78.591 38.7556H74.9307L82.9649 20.8201H86.6516L94.6858 38.7556H90.9991L89.4927 35.3749H89.4861ZM84.8017 24.5845L81.4783 32.2192H88.1316L84.8083 24.5845H84.8017Z" fill="#1E2028"/>
<path d="M96.298 38.7557V20.8466H109.169V24.1016H99.6742V28.9973H108.653V32.1266H99.6742V38.7623H96.298V38.7557Z" fill="#1E2028"/>
<path d="M124.86 38.7556H111.455V20.8201H124.86V24.1015H114.804V28.2232H124.504V31.3723H114.804V35.4212H124.86V38.749V38.7556Z" fill="#1E2028"/>
<path d="M133.152 23.8964H127.47V20.8201H142.21V23.8964H136.528V38.7556H133.152V23.8964Z" fill="#1E2028"/>
<path d="M152.881 28.2232L157.638 20.8201H161.708V20.9722L154.572 31.3525V38.7556H151.196V31.3525L144.311 20.9722V20.8201H148.329L152.881 28.2232Z" fill="#1E2028"/>
<path d="M71.2704 25.1535C70.656 24.128 68.9646 23.1555 67.0221 23.1555C64.5114 23.1555 63.3089 24.2074 63.3089 25.5372C63.3089 27.0985 65.1523 27.5352 67.2996 27.7932C71.0326 28.2563 74.5145 29.2288 74.5145 33.5093C74.5145 37.5053 70.9863 39.2254 66.989 39.2254C63.3287 39.2254 60.5141 38.1007 59.1861 34.8192L62.0007 33.3571C62.7935 35.3286 64.8682 36.2019 67.0419 36.2019C69.2156 36.2019 71.1647 35.461 71.1647 33.5093C71.1647 31.8156 69.4006 31.1276 67.0221 30.8696C63.3618 30.4329 59.9856 29.4604 59.9856 25.4379C59.9856 21.7463 63.6194 20.2379 66.923 20.2114C69.7111 20.2114 72.605 21.0053 73.9595 23.7708L71.2704 25.1535Z" fill="#1E2028"/>
<path d="M89.4861 35.3749H80.1239L78.591 38.7556H74.9307L82.9649 20.8201H86.6516L94.6858 38.7556H90.9991L89.4927 35.3749H89.4861ZM84.8017 24.5845L81.4783 32.2192H88.1316L84.8083 24.5845H84.8017Z" fill="#1E2028"/>
<path d="M96.298 38.7557V20.8466H109.169V24.1016H99.6742V28.9973H108.653V32.1266H99.6742V38.7623H96.298V38.7557Z" fill="#1E2028"/>
<path d="M124.86 38.7556H111.455V20.8201H124.86V24.1015H114.804V28.2232H124.504V31.3723H114.804V35.4212H124.86V38.749V38.7556Z" fill="#1E2028"/>
<path d="M133.152 23.8964H127.47V20.8201H142.21V23.8964H136.528V38.7556H133.152V23.8964Z" fill="#1E2028"/>
<path d="M152.881 28.2232L157.638 20.8201H161.708V20.9722L154.572 31.3525V38.7556H151.196V31.3525L144.311 20.9722V20.8201H148.329L152.881 28.2232Z" fill="#1E2028"/>
<path d="M182.884 26.6155C182.884 30.1881 180.551 32.6822 176.64 32.6822H170.244V38.9078H168.698V20.5289H176.646C180.551 20.5289 182.89 23.0496 182.89 26.6221L182.884 26.6155ZM181.331 26.6155C181.331 23.8567 179.626 21.991 176.587 21.991H170.238V31.2069H176.587C179.626 31.2069 181.331 29.3412 181.331 26.6089V26.6155Z" fill="#1E2028"/>
<path d="M186.524 20.5223H188.07V37.406H198.403V38.9012H186.524V20.5223Z" fill="#1E2028"/>
<path d="M201.218 31.7362V20.5223H202.764V31.7362C202.764 35.3088 205.096 37.7235 208.506 37.7235C211.915 37.7235 214.274 35.3088 214.274 31.7362V20.5223H215.82V31.7362C215.82 36.2284 212.88 39.2187 208.506 39.2187C204.132 39.2187 201.218 36.2284 201.218 31.7362Z" fill="#1E2028"/>
<path d="M220.26 35.9902L221.231 34.8854C222.519 36.5658 225.162 37.75 227.759 37.75C231.247 37.75 233.421 36.3607 233.421 34.1246C233.421 32.0472 231.981 31.1342 227.547 30.294C222.592 29.4008 220.702 27.9586 220.702 25.0675C220.702 22.1763 223.51 20.2114 227.627 20.2114C230.223 20.2114 232.555 21.1046 234.181 22.7585L233.289 23.8634C231.901 22.4476 229.853 21.6338 227.6 21.6338C224.402 21.6338 222.248 23.0232 222.248 25.1005C222.248 27.1779 223.689 28.0644 227.779 28.8583C233.157 29.8309 234.987 31.1673 234.987 34.0849C234.987 37.234 232.179 39.232 227.752 39.232C224.812 39.232 221.905 37.9684 220.253 36.0035L220.26 35.9902Z" fill="#1E2028"/>
</g>
<defs>
<linearGradient id="paint0_linear_6498_85497" x1="0" y1="69.0033" x2="46.9498" y2="69.0033" gradientUnits="userSpaceOnUse">
<stop stop-color="#19ACBC"/>
<stop offset="1" stop-color="#68B44E"/>
</linearGradient>
<linearGradient id="paint1_linear_6498_85497" x1="0" y1="23" x2="46.9498" y2="23" gradientUnits="userSpaceOnUse">
<stop stop-color="#19ACBC"/>
<stop offset="1" stop-color="#68B44E"/>
</linearGradient>
<clipPath id="clip0_6498_85497">
<rect width="235" height="92" fill="white"/>
</clipPath>
</defs>
</svg>
