<svg width="16" height="16" viewBox="0 0 16 16" fill="none" xmlns="http://www.w3.org/2000/svg">
<path d="M10.001 2.00415V6.66609" stroke="#99213C" stroke-linecap="round" stroke-linejoin="round"/>
<path d="M5.999 3.18457V12.6685" stroke="#99213C" stroke-linecap="round" stroke-linejoin="round"/>
<path d="M14.0026 7.33303V3.7402C14.0026 3.45275 13.8191 3.19798 13.5464 3.10727L10.4224 2.06617C10.149 1.9748 9.85283 1.9748 9.57872 2.0655L6.42073 3.11794C6.14662 3.20931 5.85116 3.20931 5.57705 3.11794L2.87526 2.21757C2.44374 2.07351 1.99756 2.39497 1.99756 2.8505V10.413C1.99756 10.6658 2.14028 10.8965 2.36638 11.0099L5.40298 12.5279C5.77847 12.7159 6.22065 12.7159 6.59614 12.5279L7.33311 12.159" stroke="#99213C" stroke-linecap="round" stroke-linejoin="round"/>
<path d="M12.0018 8.66699C13.475 8.66699 14.6695 9.86149 14.6695 11.3348C14.6695 12.808 13.475 14.0025 12.0018 14.0025C10.5285 14.0025 9.33398 12.808 9.33398 11.3348C9.33398 9.86149 10.5285 8.66699 12.0018 8.66699" stroke="#99213C" stroke-linecap="round" stroke-linejoin="round"/>
<path d="M13.0394 10.6865L11.7422 11.9837L10.9639 11.2054" stroke="#99213C" stroke-linecap="round" stroke-linejoin="round"/>
</svg>
