<svg width="24" height="24" viewBox="0 0 24 24" fill="none" xmlns="http://www.w3.org/2000/svg">
<path d="M12.1768 10.3232C12.2744 10.4209 12.2744 10.5791 12.1768 10.6768C12.0791 10.7744 11.9209 10.7744 11.8232 10.6768C11.7256 10.5791 11.7256 10.4209 11.8232 10.3232C11.9209 10.2256 12.0791 10.2256 12.1768 10.3232" stroke="#1E2028" stroke-width="1.5" stroke-linecap="round" stroke-linejoin="round"/>
<path d="M7.67678 10.3232C7.77441 10.4209 7.77441 10.5791 7.67678 10.6768C7.57915 10.7744 7.42085 10.7744 7.32322 10.6768C7.22559 10.5791 7.22559 10.4209 7.32322 10.3232C7.42085 10.2256 7.57915 10.2256 7.67678 10.3232" stroke="#1E2028" stroke-width="1.5" stroke-linecap="round" stroke-linejoin="round"/>
<path d="M16.6768 10.3232C16.7744 10.4209 16.7744 10.5791 16.6768 10.6768C16.5791 10.7744 16.4209 10.7744 16.3232 10.6768C16.2256 10.5791 16.2256 10.4209 16.3232 10.3232C16.4209 10.2256 16.5791 10.2256 16.6768 10.3232" stroke="#1E2028" stroke-width="1.5" stroke-linecap="round" stroke-linejoin="round"/>
<path fill-rule="evenodd" clip-rule="evenodd" d="M3 16.005V5C3 4.448 3.448 4 4 4H20C20.552 4 21 4.448 21 5V20L15.091 17.06L3.995 17.005C3.445 17.002 3 16.555 3 16.005Z" stroke="#1E2028" stroke-width="1.5" stroke-linecap="round" stroke-linejoin="round"/>
</svg>
