<svg width="24" height="24" viewBox="0 0 24 24" fill="none" xmlns="http://www.w3.org/2000/svg">
<path d="M9.92407 17.0021V17.4289C9.92407 17.9793 10.1428 18.5072 10.5322 18.8962C10.9215 19.2852 11.4495 19.5036 11.9999 19.5031V19.5031C12.5504 19.5033 13.0784 19.2848 13.4677 18.8956C13.8571 18.5065 14.0758 17.9786 14.0758 17.4281V17.0021" stroke="#4D5168" stroke-width="1.5" stroke-linecap="round" stroke-linejoin="round"/>
<path fill-rule="evenodd" clip-rule="evenodd" d="M16.9579 17.0022C17.9032 17.0022 18.6695 16.2359 18.6695 15.2906V15.2906C18.6691 14.8104 18.4784 14.35 18.1392 14.0101L17.0021 12.8738V9.49903C17.0021 6.73646 14.7626 4.49695 12 4.49695V4.49695C9.23744 4.49695 6.99793 6.73646 6.99793 9.49903V12.8738L5.86079 14.0101C5.52161 14.35 5.33095 14.8104 5.33057 15.2906V15.2906C5.33057 15.7445 5.51089 16.1799 5.83187 16.5009C6.15284 16.8218 6.58818 17.0022 7.04211 17.0022H16.9579Z" stroke="#4D5168" stroke-width="1.5" stroke-linecap="round" stroke-linejoin="round"/>
</svg>
