<svg width="16" height="16" viewBox="0 0 16 16" fill="none" xmlns="http://www.w3.org/2000/svg">
<path fill-rule="evenodd" clip-rule="evenodd" d="M6.66667 8H3.33333C2.59667 8 2 7.40333 2 6.66667V3.33333C2 2.59667 2.59667 2 3.33333 2H6.66667C7.40333 2 8 2.59667 8 3.33333V6.66667C8 7.40333 7.40333 8 6.66667 8Z" stroke="#99213C" stroke-linecap="round" stroke-linejoin="round"/>
<path fill-rule="evenodd" clip-rule="evenodd" d="M12.334 13.333H10.334C9.78198 13.333 9.33398 12.885 9.33398 12.333V10.333C9.33398 9.78101 9.78198 9.33301 10.334 9.33301H12.334C12.886 9.33301 13.334 9.78101 13.334 10.333V12.333C13.334 12.885 12.886 13.333 12.334 13.333Z" stroke="#99213C" stroke-linecap="round" stroke-linejoin="round"/>
<path fill-rule="evenodd" clip-rule="evenodd" d="M13 7.33301H11C10.448 7.33301 10 6.88501 10 6.33301V4.33301C10 3.78101 10.448 3.33301 11 3.33301H13C13.552 3.33301 14 3.78101 14 4.33301V6.33301C14 6.88501 13.552 7.33301 13 7.33301Z" stroke="#99213C" stroke-linecap="round" stroke-linejoin="round"/>
<path fill-rule="evenodd" clip-rule="evenodd" d="M6.33398 14H4.33398C3.78198 14 3.33398 13.552 3.33398 13V11C3.33398 10.448 3.78198 10 4.33398 10H6.33398C6.88598 10 7.33398 10.448 7.33398 11V13C7.33398 13.552 6.88598 14 6.33398 14Z" stroke="#99213C" stroke-linecap="round" stroke-linejoin="round"/>
</svg>
