<svg width="16" height="16" viewBox="0 0 16 16" fill="none" xmlns="http://www.w3.org/2000/svg">
<path fill-rule="evenodd" clip-rule="evenodd" d="M4.35702 13.0237L2.97631 11.643C2.35119 11.0179 2 10.17 2 9.28596V6.71472C2 5.83066 2.35119 4.98282 2.97631 4.35769L4.35769 2.97632C4.98281 2.35119 5.83066 2 6.71471 2H9.28529C10.1693 2 11.0172 2.35119 11.6423 2.97631L13.0237 4.35769C13.6488 4.98281 14 5.83066 14 6.71472V9.28605C14 10.1699 13.649 11.0176 13.0241 11.6427L11.6439 13.0233C11.0187 13.6487 10.1707 14 9.2865 14H6.71405C5.82999 14 4.98214 13.6488 4.35702 13.0237V13.0237Z" stroke="#1B3CCE" stroke-linecap="round" stroke-linejoin="round"/>
<path d="M5 10.6667C5.26461 10.0596 5.86373 9.667 6.52596 9.66669H9.47404C10.1363 9.667 10.7354 10.0596 11 10.6667" stroke="#1B3CCE" stroke-linecap="round" stroke-linejoin="round"/>
<circle cx="7.99967" cy="6.33335" r="1.66667" stroke="#1B3CCE" stroke-linecap="round" stroke-linejoin="round"/>
</svg>
