<svg width="48" height="48" viewBox="0 0 48 48" fill="none" xmlns="http://www.w3.org/2000/svg">
<rect width="48" height="48" rx="24" fill="#FAE6EA"/>
<path d="M20.2149 30V28.455L23.2449 25.29C23.8449 24.66 24.3049 24.16 24.6249 23.79C24.9549 23.41 25.1849 23.085 25.3149 22.815C25.4449 22.545 25.5099 22.27 25.5099 21.99C25.5099 21.52 25.3599 21.15 25.0599 20.88C24.7699 20.61 24.3949 20.475 23.9349 20.475C23.4549 20.475 23.0399 20.615 22.6899 20.895C22.3399 21.165 22.0849 21.565 21.9249 22.095L20.1399 21.54C20.2599 20.95 20.5049 20.44 20.8749 20.01C21.2449 19.57 21.6949 19.235 22.2249 19.005C22.7649 18.765 23.3349 18.645 23.9349 18.645C24.6549 18.645 25.2849 18.775 25.8249 19.035C26.3749 19.295 26.7999 19.66 27.0999 20.13C27.4099 20.6 27.5649 21.15 27.5649 21.78C27.5649 22.18 27.4899 22.575 27.3399 22.965C27.1899 23.355 26.9649 23.755 26.6649 24.165C26.3649 24.565 25.9749 25.015 25.4949 25.515L22.8699 28.275H27.7149V30H20.2149Z" fill="#99213C"/>
</svg>
