<svg width="48" height="48" viewBox="0 0 48 48" fill="none" xmlns="http://www.w3.org/2000/svg">
<rect width="48" height="48" rx="24" fill="#FAE6EA"/>
<path d="M23.81 30.18C23.2 30.18 22.62 30.07 22.07 29.85C21.53 29.62 21.065 29.3 20.675 28.89C20.295 28.47 20.035 27.975 19.895 27.405L21.68 26.775C21.86 27.285 22.135 27.675 22.505 27.945C22.875 28.205 23.31 28.335 23.81 28.335C24.21 28.335 24.555 28.26 24.845 28.11C25.145 27.96 25.38 27.745 25.55 27.465C25.72 27.175 25.805 26.835 25.805 26.445C25.805 26.055 25.72 25.725 25.55 25.455C25.39 25.175 25.16 24.96 24.86 24.81C24.56 24.66 24.205 24.585 23.795 24.585C23.605 24.585 23.405 24.605 23.195 24.645C22.995 24.685 22.815 24.745 22.655 24.825L22.19 23.85L25.085 20.55H20.525V18.825H27.38V20.43L24.47 23.835L24.5 23.07C25.17 23.08 25.755 23.225 26.255 23.505C26.755 23.785 27.145 24.17 27.425 24.66C27.705 25.15 27.845 25.725 27.845 26.385C27.845 27.105 27.67 27.755 27.32 28.335C26.97 28.905 26.49 29.355 25.88 29.685C25.27 30.015 24.58 30.18 23.81 30.18Z" fill="#99213C"/>
</svg>
