<svg width="16" height="16" viewBox="0 0 16 16" fill="none" xmlns="http://www.w3.org/2000/svg">
<path d="M2 14.0002V13.6858C2 12.7325 2.67292 11.9116 3.60777 11.7247L5.5051 11.3452C5.66192 11.3138 5.82478 11.3461 5.95784 11.4348V11.4348C7.19448 12.2592 8.80555 12.2592 10.0422 11.4348V11.4348C10.1753 11.3461 10.3381 11.3138 10.4949 11.3452L12.3923 11.7247C13.3271 11.9117 14 12.7325 14 13.6858V14.0002" stroke="#99213C" stroke-linecap="round" stroke-linejoin="round"/>
<path d="M5.33333 14V11.3794" stroke="#99213C" stroke-linecap="round" stroke-linejoin="round"/>
<path d="M10.6666 14V11.3794" stroke="#99213C" stroke-linecap="round" stroke-linejoin="round"/>
<path fill-rule="evenodd" clip-rule="evenodd" d="M4.88991 6.00016H11.1101C11.2942 6.00016 11.4435 5.85092 11.4435 5.66683V4.77693C11.4435 3.86367 11.0807 2.98782 10.4349 2.34205C9.78913 1.69628 8.91328 1.33349 8.00002 1.3335V1.3335C7.08676 1.33349 6.21091 1.69628 5.56514 2.34205C4.91937 2.98782 4.55658 3.86367 4.55658 4.77693V5.66683C4.55658 5.85092 4.70582 6.00016 4.88991 6.00016Z" stroke="#99213C" stroke-linecap="round" stroke-linejoin="round"/>
<path d="M4.33331 5.99984H11.6666" stroke="#99213C" stroke-linecap="round" stroke-linejoin="round"/>
<path d="M10.6666 6V7.33333C10.6666 8.80609 9.47274 10 7.99998 10V10C6.52722 10 5.33331 8.80609 5.33331 7.33333V6" stroke="#99213C" stroke-linecap="round" stroke-linejoin="round"/>
<path d="M9.40081 9.60352L9.88353 11.5345" stroke="#99213C" stroke-linecap="round" stroke-linejoin="round"/>
<path d="M6.6008 9.60352L6.11811 11.5344" stroke="#99213C" stroke-linecap="round" stroke-linejoin="round"/>
<path d="M9 1.48096V2.33338C9 2.88566 8.55228 3.33338 8 3.33338V3.33338C7.44772 3.33338 7 2.88566 7 2.33338V1.48096" stroke="#99213C" stroke-linecap="round" stroke-linejoin="round"/>
</svg>
