<svg width="20" height="20" viewBox="0 0 20 20" fill="none" xmlns="http://www.w3.org/2000/svg">
<path d="M12.4854 3.73174L11.8362 4.10728C11.9703 4.33903 12.2177 4.48174 12.4854 4.48174V3.73174ZM1.37215 10.2371C1.50313 10.63 1.92787 10.8424 2.32083 10.7114C2.71379 10.5804 2.92616 10.1557 2.79517 9.76275L1.37215 10.2371ZM16.8295 9.66451C16.6443 10.035 16.7944 10.4855 17.1649 10.6707C17.5354 10.856 17.9859 10.7058 18.1711 10.3353L16.8295 9.66451ZM12.4668 12.7647C12.7657 13.0515 13.2404 13.0417 13.5272 12.7429C13.814 12.444 13.8042 11.9692 13.5053 11.6824L12.4668 12.7647ZM9.58329 8.95834L10.1026 8.41718C9.81238 8.13872 9.3542 8.13872 9.064 8.41718L9.58329 8.95834ZM5.66123 11.6824C5.36236 11.9692 5.35256 12.444 5.63935 12.7429C5.92615 13.0417 6.40092 13.0515 6.69979 12.7647L5.66123 11.6824ZM8.83325 18.9838C8.83325 19.398 9.16904 19.7338 9.58325 19.7338C9.99746 19.7338 10.3333 19.3981 10.3333 18.9838L8.83325 18.9838ZM7.46396 1.58325C9.33111 1.58325 10.9624 2.59678 11.8362 4.10728L13.1346 3.35619C12.0037 1.40126 9.88821 0.083252 7.46396 0.083252V1.58325ZM2.41699 6.63022C2.41699 4.12065 4.70146 1.58325 7.46396 1.58325V0.083252C3.82331 0.083252 0.916992 3.34283 0.916992 6.63022H2.41699ZM2.79517 9.76275C2.42174 8.64244 2.41699 7.50679 2.41699 6.63022H0.916992C0.916992 7.49304 0.912249 8.8574 1.37215 10.2371L2.79517 9.76275ZM17.167 7.49992C17.167 8.35214 17.156 9.01143 16.8295 9.66451L18.1711 10.3353C18.6779 9.32174 18.667 8.31436 18.667 7.49992H17.167ZM13.2609 4.48174C14.293 4.48174 15.2933 4.84618 16.0248 5.42336C16.7572 6.00123 17.167 6.74351 17.167 7.49992H18.667C18.667 6.173 17.9494 5.03119 16.954 4.24579C15.9577 3.45971 14.6301 2.98174 13.2609 2.98174V4.48174ZM12.4854 4.48174H13.2609V2.98174H12.4854V4.48174ZM13.5053 11.6824L10.1026 8.41718L9.064 9.49949L12.4668 12.7647L13.5053 11.6824ZM9.064 8.41718L5.66123 11.6824L6.69979 12.7647L10.1026 9.49949L9.064 8.41718ZM8.83329 8.95834L8.83325 18.9838L10.3333 18.9838L10.3333 8.95834L8.83329 8.95834Z" fill="#F7F7F7"/>
</svg>
