<svg width="24" height="16" viewBox="0 0 24 16" fill="none" xmlns="http://www.w3.org/2000/svg">
<path d="M21.8194 0H2.18057C0.976275 0 0 0.969351 0 2.16511V13.8349C0 15.0306 0.976275 16 2.18057 16H21.8194C23.0237 16 24 15.0306 24 13.8349V2.16511C24 0.969351 23.0237 0 21.8194 0Z" fill="#57A863"/>
<path d="M3.42578 11.5813H20.9115C20.9115 11.5813 20.6029 12.2621 20.2258 12.2621H4.1115C3.73435 12.2621 3.42578 11.5813 3.42578 11.5813Z" fill="white"/>
<path d="M18.172 10.5531H17.4863V13.2765H18.172V10.5531Z" fill="white"/>
<path d="M3.21279 4.194C3.17165 4.75229 3.12022 5.73953 3.59679 5.83825C4.16936 5.89272 3.85394 4.86463 4.05965 4.6774C4.09736 4.58549 4.17279 4.58549 4.17622 4.70123V5.57272C4.16764 5.77387 4.30445 5.9526 4.50194 5.99825C4.62588 5.9543 4.76256 6.01613 4.81051 6.13783C4.83336 6.64166 4.85736 7.14435 4.88251 7.64591C4.92022 8.40166 5.22536 7.74804 5.24936 6.79825C5.24936 6.23995 5.13965 5.77698 5.21165 5.66463C5.21165 5.5591 5.34879 5.55229 5.44479 5.60336C5.54898 5.7421 5.72155 5.81273 5.89394 5.78719C6.23679 5.68846 6.45965 5.51485 6.46651 5.24251C6.45718 4.97552 6.40271 4.71198 6.30536 4.46293C6.30536 4.41527 6.23679 4.29272 6.25394 4.24506C6.31908 4.34378 6.41508 4.33697 6.43565 4.24506C6.39702 4.05503 6.28817 3.88623 6.13051 3.77187C6.06944 3.70905 5.97651 3.6885 5.89436 3.71964C5.81222 3.75078 5.75673 3.82761 5.75336 3.91485C5.74398 4.22046 5.84628 4.51913 6.04136 4.7557C6.10151 4.88672 6.12632 5.03101 6.11336 5.17442C6.01551 5.22887 5.89215 5.20263 5.82536 5.11315C5.72022 5.04002 5.62563 4.95298 5.54422 4.85442C5.61494 4.63143 5.60647 4.3911 5.52022 4.17357C5.48736 4.03867 5.42405 3.91295 5.33508 3.80591C5.31166 3.77023 5.27168 3.74872 5.22879 3.74872C5.1859 3.74872 5.14592 3.77023 5.12251 3.80591C5.02251 4.09645 5.03103 4.413 5.14651 4.69783C5.20809 4.79244 5.24789 4.89938 5.26308 5.01102C5.22536 5.11995 5.14308 5.09272 5.08479 4.97017C5.0158 4.70332 4.98237 4.42863 4.98536 4.15315C4.96136 3.93868 4.93394 3.47229 4.78994 3.36336C4.75745 3.31781 4.70125 3.2952 4.64599 3.30544C4.59074 3.31568 4.54654 3.3569 4.53279 3.41102C4.51604 3.61834 4.51604 3.82667 4.53279 4.034C4.61589 4.36402 4.67434 4.69968 4.70765 5.03825C4.70765 5.51144 4.43336 5.24251 4.44708 5.00761C4.51157 4.70917 4.51157 4.40053 4.44708 4.10208C4.43467 4.01283 4.35185 3.9504 4.26193 3.96251H4.23451C3.99615 4.10788 3.85079 4.36561 3.85051 4.64336C3.81683 4.77802 3.79051 4.91439 3.77165 5.05187C3.74079 5.26974 3.59679 5.42293 3.49736 5.02123C3.42536 4.74208 3.36022 4.02719 3.21279 4.194ZM4.76936 6.48846C4.26536 6.73698 3.77508 6.96846 3.27794 7.20676C3.29508 6.86634 3.98765 6.25357 4.46079 6.24676C4.76936 6.24676 4.69051 6.36591 4.77279 6.48846H4.76936ZM3.32936 7.92846C3.04822 8.37783 3.02422 9.04506 3.17851 9.24591C3.25895 9.33395 3.37981 9.37395 3.49736 9.35144C3.66738 9.21614 3.74899 8.99917 3.70994 8.78634C3.65165 8.69442 3.60365 8.6808 3.54536 8.7591C3.42194 9.01102 3.37051 8.8374 3.36022 8.69783C3.34568 8.46126 3.35717 8.22383 3.39451 7.98974C3.42536 7.78889 3.39451 7.85017 3.32936 7.93187V7.92846ZM15.3294 7.21017C15.0585 6.62463 14.6814 6.04591 14.5614 5.82463C14.4414 5.60336 13.5328 4.28932 13.4094 4.13953C13.1145 3.7991 13.8859 4.28591 13.3099 3.59144L12.8985 3.25102C12.8059 3.18634 12.5831 3.06719 12.5556 3.25102C12.5361 3.38837 12.5431 3.52817 12.5762 3.66293C12.6358 3.78684 12.7132 3.90151 12.8059 4.00336C13.7644 5.27424 14.6044 6.62904 15.3156 8.05102C15.4391 7.99315 15.4116 7.29527 15.3396 7.19655L15.3294 7.21017ZM14.1396 9.17102C14.1458 9.26203 14.1884 9.34679 14.258 9.4063C14.3276 9.46582 14.4184 9.49511 14.5099 9.48761C14.9111 9.43995 15.2677 9.21527 15.5934 8.61953C15.7295 8.41553 15.8141 8.182 15.8402 7.93868C15.8811 6.8043 15.7913 5.66901 15.5728 4.55485C15.5554 4.47751 15.5554 4.3973 15.5728 4.31995C15.6326 4.30852 15.6882 4.28149 15.7339 4.24166C15.8025 4.17017 15.5522 3.58804 15.3911 3.36336C15.3397 3.26123 15.3225 3.19655 15.2368 3.36336C15.135 3.5598 15.0865 3.77923 15.0962 3.99995C15.2882 5.33102 15.3465 6.49868 15.4734 7.82974C15.4944 7.96769 15.4599 8.10832 15.3774 8.22123C15.0262 8.61513 14.5951 8.93071 14.1122 9.14719L14.1396 9.17102ZM19.5705 9.17102C19.2825 9.33783 19.2825 9.53187 19.5156 9.53868C19.9168 9.49102 20.3934 9.45698 20.7191 8.96336C20.8347 8.73046 20.9023 8.477 20.9179 8.21783C20.9714 7.09985 20.8966 5.97945 20.6951 4.87825C20.6725 4.76608 20.6599 4.65218 20.6574 4.53783C20.6848 4.46974 20.8151 4.53783 20.8631 4.46974C20.9111 4.40166 20.5202 3.874 20.3797 3.64932C20.3282 3.54719 20.3111 3.48251 20.2254 3.64932C20.1297 3.84722 20.1009 4.07045 20.1431 4.28591C20.3575 5.54841 20.4926 6.82293 20.5476 8.10208C20.5343 8.21813 20.5078 8.33232 20.4688 8.44251C20.3537 8.6108 20.2203 8.76605 20.0711 8.90549C19.9408 9.0008 19.6631 9.09612 19.5705 9.16761V9.17102ZM19.7865 7.874C19.7865 7.53357 19.7865 7.24421 19.7865 6.99229C19.7839 6.77279 19.7361 6.55613 19.6459 6.3557C19.6009 6.17518 19.5768 5.99016 19.5739 5.80421C19.5362 5.59995 19.5465 5.29357 19.4882 5.05187C19.4595 4.91049 19.4423 4.76705 19.4368 4.62293C19.4608 4.55485 19.5534 4.62293 19.5979 4.54804C19.6425 4.47315 19.3648 3.70719 19.2139 3.48591C19.1625 3.38719 19.0631 3.42123 18.9431 3.58123C18.8487 3.75953 18.8386 3.97019 18.9156 4.15655C19.2298 5.57396 19.3827 7.02188 19.3716 8.47315C19.3716 8.5957 19.7968 8.10889 19.7934 7.8774L19.7865 7.874ZM17.6539 6.00166C17.3666 5.90089 17.124 5.70334 16.9682 5.44336C16.9346 5.34445 16.9433 5.23617 16.9922 5.14378C17.0599 5.08483 17.1549 5.06781 17.2391 5.09953C17.2689 5.13688 17.291 5.17967 17.3042 5.22549C17.4036 5.27315 17.4448 5.24591 17.4551 5.20506C17.4654 5.16421 17.4242 5.09272 17.4242 5.01442C17.4318 4.92929 17.4911 4.85743 17.5736 4.83336C17.6562 4.80928 17.7452 4.83791 17.7979 4.90549C17.8621 5.02007 17.8963 5.14883 17.8974 5.27995C17.8974 5.34123 17.8014 5.27995 17.7465 5.27995C17.6959 5.30596 17.6661 5.35975 17.6711 5.41612C17.6711 5.56932 17.6436 5.81442 17.6402 6.00166H17.6539ZM14.3042 8.25187C14.3262 7.73558 14.3194 7.21847 14.2836 6.70293C14.2631 6.06293 14.1602 4.82378 14.1088 4.61612C14.0539 4.22804 14.2699 4.66038 14.2391 4.43229C14.1431 4.05455 13.9587 3.70463 13.7008 3.41102C13.6219 3.29527 13.6219 3.27144 13.4985 3.43825C13.4083 3.69156 13.4083 3.96792 13.4985 4.22123C13.6728 4.97026 13.7875 5.73177 13.8414 6.49868C13.8964 7.26233 13.9033 8.02865 13.8619 8.79315C14.1016 8.70634 14.2697 8.49044 14.2939 8.23825L14.3042 8.25187ZM20.3934 7.49612C20.0745 6.95825 19.5911 6.37272 19.4608 6.15825C19.3305 5.94378 18.2436 4.52761 18.0894 4.38804C17.6916 3.96591 18.2711 4.31995 18.0139 3.99315C17.8735 3.82236 17.7148 3.66714 17.5408 3.53017C17.4482 3.46889 17.3899 3.35314 17.3591 3.55059C17.3491 3.7252 17.3491 3.90024 17.3591 4.07485C17.3807 4.20008 17.4351 4.31748 17.5168 4.41527C18.5921 5.64072 19.5537 6.96013 20.3899 8.3574C20.5099 8.29272 20.4722 7.60506 20.3899 7.50974L20.3934 7.49612ZM8.39336 5.94719L8.35908 6.16506C8.34868 6.19969 8.31661 6.22342 8.28022 6.22342C8.24383 6.22342 8.21176 6.19969 8.20136 6.16506C8.13965 5.88591 7.88936 5.85187 7.73508 6.28081C7.63222 6.36251 7.44708 6.37953 7.42651 6.25698C7.45051 5.96761 7.33393 5.91655 7.10079 6.06634C7.02536 5.49442 6.94993 4.94634 6.87451 4.36421C6.96613 4.40491 7.07323 4.38896 7.14879 4.32336C7.05279 4.02038 6.84708 3.4008 6.73393 3.35655C6.67908 3.28846 6.63108 3.33272 6.55908 3.35655C6.41219 3.39949 6.32482 3.54905 6.36022 3.69697C6.50422 4.57527 6.60022 5.24591 6.74079 6.12421C6.76201 6.22469 6.69778 6.3234 6.59679 6.34549H6.56594C6.37736 6.21953 6.32936 5.9608 6.01051 5.97102C5.74382 6.00898 5.53131 6.21176 5.48251 6.47485C5.43679 6.66393 5.43679 6.86108 5.48251 7.05017C5.6114 7.20497 5.82661 7.25874 6.01393 7.18293C6.1064 7.11017 6.21078 7.05374 6.32251 7.01612C6.35679 7.05698 6.32251 7.52336 5.65736 7.88421C5.24936 8.06804 4.92708 8.10889 4.75222 7.77527C4.64251 7.56761 4.75222 6.77442 4.49508 6.95825C3.70994 9.00081 6.33622 9.27655 6.63108 7.03995C6.65851 6.94804 6.76822 6.85612 6.78879 7.00591C6.72708 9.02804 4.75565 9.16761 4.41965 8.53102C4.34067 8.31267 4.30121 8.08217 4.30308 7.85017C4.25165 7.45187 4.04594 7.60506 4.01165 7.99995C3.98717 8.16329 3.97913 8.32865 3.98765 8.49357C4.09394 10.0902 6.63451 9.40591 7.04593 8.08506C7.26536 7.35315 7.01165 6.81527 7.12822 6.81868C7.32362 6.9887 7.62055 6.97046 7.79336 6.77783V6.76081C7.8101 6.73587 7.83617 6.71861 7.86579 6.71285C7.89541 6.7071 7.92611 6.71333 7.95108 6.73017H7.96822C8.06929 6.80186 8.19774 6.82394 8.3172 6.79015C8.43666 6.75635 8.5341 6.67037 8.58194 6.55655C8.6267 6.30565 8.65419 6.05201 8.66422 5.7974C8.56111 5.81625 8.46913 5.87348 8.40708 5.9574L8.39336 5.94719ZM6.06536 6.69272C6.0224 6.71597 5.97212 6.72206 5.92479 6.70974C5.87539 6.7136 5.82789 6.69002 5.80136 6.64846C5.80032 6.5939 5.82131 6.54118 5.85965 6.50208C5.89067 6.46505 5.93909 6.44705 5.98698 6.45474C6.03487 6.46243 6.07511 6.49467 6.09279 6.53953C6.11165 6.59181 6.10122 6.6501 6.06536 6.69272ZM8.93851 3.72421C8.64708 4.55825 9.10651 5.474 9.42194 5.38549C9.65165 5.4808 9.79565 5.04506 9.89165 4.56506C9.95679 4.43229 10.0048 4.41527 10.0356 4.48676C10.0356 5.12336 10.0802 5.26634 10.2448 5.46038C10.4412 5.63072 10.7341 5.63072 10.9305 5.46038L11.2151 5.17442C11.2813 5.11174 11.3854 5.11174 11.4516 5.17442C11.5113 5.29754 11.6008 5.404 11.7122 5.48421C11.9085 5.55042 12.1256 5.50471 12.2779 5.36506C12.3842 5.18463 12.4082 5.12336 12.4562 5.05527C12.4931 4.99635 12.5703 4.97682 12.6311 5.01102L12.6585 5.03144C12.6125 5.09167 12.5984 5.17023 12.6208 5.24251C12.6665 5.28364 12.7362 5.28364 12.7819 5.24251C12.9413 5.11382 13.0603 4.94254 13.1248 4.74889C13.1248 4.5991 13.0494 4.61272 12.9945 4.64336C12.9396 4.674 12.9191 4.70123 12.8471 4.74549C12.7307 4.79433 12.5962 4.7703 12.5042 4.68421C12.4431 4.50319 12.3916 4.31911 12.3499 4.13272C12.3499 4.13272 12.2299 3.874 12.3499 3.86038C12.4048 3.86038 12.5248 3.90123 12.5419 3.80251C12.5301 3.60677 12.4415 3.42343 12.2951 3.29187C12.1993 3.17847 12.0292 3.16325 11.9145 3.25783L11.8905 3.28166C11.8203 3.36445 11.7826 3.46962 11.7842 3.57783C11.7515 3.71926 11.787 3.86775 11.8802 3.97953C12.0485 4.21758 12.1274 4.5067 12.1031 4.79655C12.0372 4.89343 11.9259 4.94998 11.8082 4.94634C11.7328 4.94634 11.6059 4.89527 11.5374 4.39485C11.4859 4.01698 11.5374 3.48591 11.3899 3.2374C11.3316 3.08761 11.2871 2.94123 11.1465 3.19995C11.0246 3.3637 10.9937 3.57727 11.0642 3.76846C11.3258 4.11068 11.2921 4.59226 10.9854 4.89527C10.8971 4.98973 10.7548 5.01093 10.6425 4.94634C10.5247 4.88743 10.4448 4.77349 10.4299 4.64336C10.4559 4.31631 10.4444 3.9874 10.3956 3.66293C10.375 3.60524 10.3253 3.56262 10.2648 3.55075C10.2043 3.53887 10.142 3.55951 10.1008 3.60506C9.82282 3.91628 9.63762 4.2982 9.56594 4.70804C9.48365 4.97698 9.39451 4.89868 9.33279 4.78974C9.18193 4.64676 9.17165 3.54038 8.98993 3.7208L8.93851 3.72421ZM5.34879 3.72421C5.54422 3.81953 5.91451 3.77868 5.89736 3.46208C5.89736 3.43485 5.89736 3.33953 5.89736 3.31229C5.85622 3.22038 5.74651 3.2408 5.72251 3.33953C5.73374 3.37149 5.73374 3.40629 5.72251 3.43825C5.72251 3.43825 5.64365 3.43825 5.64708 3.35655C5.64291 3.3289 5.63104 3.30295 5.61279 3.28166C5.59948 3.27698 5.58496 3.27698 5.57165 3.28166C5.5524 3.28105 5.53531 3.29378 5.53051 3.31229C5.52749 3.33603 5.52749 3.36005 5.53051 3.38378C5.53088 3.40248 5.52021 3.41966 5.50323 3.42773C5.48624 3.43579 5.46607 3.43325 5.45165 3.42123C5.43685 3.41233 5.42681 3.39736 5.42422 3.38038C5.42833 3.35444 5.42833 3.32802 5.42422 3.30208C5.41169 3.28799 5.39481 3.27841 5.37622 3.27485C5.34029 3.28069 5.30817 3.30048 5.28695 3.32985C5.26573 3.35923 5.25714 3.39578 5.26308 3.43144C5.24632 3.54563 5.29868 3.65895 5.39679 3.7208L5.34879 3.72421ZM11.1088 6.16846C11.3042 6.26378 11.7705 6.20932 11.6574 5.90634C11.6574 5.8791 11.6574 5.78378 11.6574 5.75655C11.6196 5.66463 11.5099 5.68506 11.4825 5.78378C11.4953 5.81547 11.4953 5.85082 11.4825 5.88251C11.4825 5.88251 11.4036 5.88251 11.4071 5.80081C11.4033 5.77304 11.3914 5.747 11.3728 5.72591C11.3595 5.72095 11.3449 5.72095 11.3316 5.72591C11.3042 5.72591 11.3042 5.72591 11.2905 5.75655C11.2871 5.78026 11.2871 5.80433 11.2905 5.82804C11.2925 5.83942 11.2895 5.8511 11.2823 5.86018C11.2751 5.86927 11.2644 5.8749 11.2528 5.8757C11.2399 5.88236 11.2245 5.88236 11.2116 5.8757C11.1975 5.86619 11.1876 5.85151 11.1842 5.83485C11.1899 5.80905 11.1899 5.78235 11.1842 5.75655C11.1721 5.74202 11.155 5.73234 11.1362 5.72932C11.1012 5.73515 11.0699 5.75457 11.0494 5.78331C11.0288 5.81205 11.0206 5.84774 11.0265 5.88251C11.0072 5.99622 11.0586 6.11032 11.1568 6.17187L11.1088 6.16846ZM14.4654 5.14719C14.6608 5.24251 15.0311 5.20166 15.0139 4.88506C15.0139 4.85783 15.0139 4.76251 15.0139 4.73527C14.9762 4.64336 14.8665 4.66378 14.8425 4.76251C14.8537 4.79447 14.8537 4.82927 14.8425 4.86123C14.8425 4.86123 14.7636 4.86123 14.7671 4.77953C14.7635 4.75171 14.7515 4.72561 14.7328 4.70463C14.7197 4.69895 14.7048 4.69895 14.6916 4.70463C14.6724 4.70403 14.6553 4.71676 14.6505 4.73527C14.6472 4.75899 14.6472 4.78305 14.6505 4.80676C14.6525 4.81815 14.6495 4.82982 14.6423 4.83891C14.6351 4.84799 14.6244 4.85363 14.6128 4.85442C14.5999 4.86108 14.5845 4.86108 14.5716 4.85442C14.5575 4.84491 14.5476 4.83024 14.5442 4.81357C14.5481 4.78761 14.5481 4.76123 14.5442 4.73527C14.531 4.72202 14.5144 4.7126 14.4962 4.70804C14.4234 4.71857 14.3729 4.7855 14.3831 4.85783V4.87825C14.3663 4.99244 14.4187 5.10575 14.5168 5.16761L14.4654 5.14719ZM16.2036 7.68676C15.9654 8.02921 15.9226 8.46966 16.0905 8.85102C16.1677 9.0574 16.3175 9.22909 16.5122 9.33442C16.5698 9.38753 16.6464 9.41561 16.7249 9.41241C16.8035 9.40921 16.8775 9.37501 16.9305 9.3174L16.9545 9.28676C17.1568 9.0791 17.1602 8.54464 17.2528 8.4391C17.2662 8.37111 17.3184 8.31715 17.3863 8.30104C17.4541 8.28492 17.5253 8.30961 17.5682 8.36421C17.6412 8.46887 17.7389 8.5542 17.8528 8.61272C18.0227 8.78434 18.2947 8.80332 18.4871 8.65698C18.6496 8.56748 18.772 8.42036 18.8299 8.24506C18.9294 7.98293 18.8745 6.76421 18.8539 6.04251C18.8539 5.98463 18.6585 5.05187 18.6585 5.04166C18.6585 5.03144 18.6345 4.56506 18.6139 4.45272C18.6139 4.40846 18.6139 4.39485 18.6448 4.40166C18.6706 4.42628 18.7009 4.44591 18.7339 4.45953C18.7854 4.45953 18.8299 4.38123 18.7991 4.30293L18.3328 3.43485C18.2951 3.3974 18.2436 3.35655 18.1854 3.43485C18.1105 3.50016 18.0679 3.5946 18.0688 3.69357C18.0688 3.89783 18.1202 4.10889 18.1339 4.31315L18.3191 5.36846C18.3808 6.12081 18.3945 6.73017 18.4528 7.48932C18.4741 7.71929 18.4026 7.94826 18.2539 8.12591C18.1824 8.17351 18.0889 8.17351 18.0174 8.12591C17.8878 7.98458 17.7729 7.83061 17.6745 7.66634C17.6364 7.60929 17.572 7.57499 17.5031 7.57499C17.4341 7.57499 17.3698 7.60929 17.3316 7.66634C17.0574 7.93527 16.9305 8.43229 16.7454 8.77953C16.7072 8.83658 16.6429 8.87088 16.5739 8.87088C16.505 8.87088 16.4406 8.83658 16.4025 8.77953C16.205 8.45499 16.132 8.07065 16.1968 7.69698L16.2036 7.68676ZM14.5545 3.30208C14.7438 3.44344 14.842 3.67483 14.8116 3.90804C14.7774 4.12591 14.6848 4.3574 14.6162 4.32676C14.5476 4.29612 14.6677 4.11229 14.5957 3.91485C14.5009 3.77687 14.4161 3.63239 14.3419 3.48251C14.3295 3.42649 14.3489 3.36821 14.3925 3.33059C14.4361 3.29297 14.497 3.28203 14.5511 3.30208H14.5545ZM16.7968 7.92846C16.8131 7.61375 16.8016 7.29822 16.7625 6.98549C16.7625 6.73357 16.4779 4.80676 16.4197 4.60251C16.3511 4.24166 16.6837 4.55485 16.6459 4.34378C16.5328 4.07825 16.2448 3.69357 16.1557 3.46549C16.1008 3.36676 16.1248 3.27825 16.0048 3.43825C15.8981 3.72523 15.8605 4.033 15.8951 4.33698C16.1831 5.84846 16.4779 7.10463 16.4334 8.54123C16.5671 8.54123 16.7248 8.22804 16.7762 7.91485L16.7968 7.92846ZM19.8036 3.93868C19.9664 4.1183 20.0514 4.35433 20.0402 4.5957C20.0094 4.83059 19.9236 5.08251 19.8619 5.04846C19.8375 4.90111 19.8317 4.75129 19.8448 4.60251C19.7579 4.45172 19.6801 4.29599 19.6116 4.13612C19.592 4.08131 19.6053 4.02015 19.646 3.97829C19.6867 3.93642 19.7478 3.92107 19.8036 3.93868ZM7.88251 7.11485C8.03127 7.23093 8.11533 7.4105 8.10879 7.59825C8.11479 7.73353 8.04995 7.86227 7.93736 7.93868C7.91248 7.82696 7.90669 7.71188 7.92022 7.59825C7.86349 7.47436 7.78837 7.35961 7.69736 7.25783C7.65622 7.11825 7.78651 7.09442 7.87908 7.11485H7.88251ZM3.76822 3.22378C3.94277 3.32599 4.03239 3.52723 3.99108 3.72421C3.99412 3.85805 3.93147 3.98501 3.82308 4.06463C3.79245 3.95388 3.78086 3.83879 3.78879 3.72421C3.71175 3.61664 3.64408 3.50275 3.58651 3.38378C3.54536 3.25442 3.67565 3.20336 3.76822 3.22378ZM8.22536 4.79655C8.04645 4.91386 7.98827 5.14792 8.09165 5.33442C8.15704 5.42006 8.26895 5.45665 8.37279 5.42634C8.54422 5.44676 8.64365 5.10634 8.64365 5.10634C8.64365 5.10634 8.64365 5.01102 8.44822 5.19144C8.42824 5.20063 8.40538 5.20148 8.38476 5.1938C8.36414 5.18612 8.34748 5.17056 8.33851 5.15059C8.33765 5.14381 8.33765 5.13695 8.33851 5.13017C8.31873 5.04103 8.32835 4.94793 8.36594 4.86463C8.39336 4.77953 8.33165 4.74208 8.23222 4.79995L8.22536 4.79655ZM9.52822 3.09442C9.37932 3.1986 9.28208 3.36076 9.26079 3.54038C9.26079 3.65953 9.23336 3.65612 9.31222 3.73102C9.39108 3.80591 9.42194 3.80251 9.53508 3.73102C9.59071 3.69558 9.62917 3.63893 9.64136 3.57442C9.66879 3.44166 9.50079 3.6391 9.48022 3.48932C9.47286 3.35375 9.53801 3.22438 9.65165 3.14889C9.65165 3.05697 9.65165 2.99229 9.52822 3.06719V3.09442ZM10.5774 3.28166C10.5362 3.45146 10.511 3.62468 10.5019 3.7991C10.4711 3.92846 10.6391 3.98293 10.7111 3.81612C10.7844 3.63612 10.8261 3.445 10.8345 3.25102C10.7968 3.05357 10.6665 3.06038 10.5774 3.27825V3.28166ZM17.1945 6.65868C17.2185 6.63485 18.1271 5.97783 18.1271 5.97783C18.2197 5.94378 18.1991 6.31825 18.1579 6.31825C17.8765 6.596 17.551 6.82601 17.1945 6.9991C17.1179 6.89836 17.1179 6.75942 17.1945 6.65868ZM18.0242 6.65868C18.1854 6.73698 18.2505 7.21017 18.2299 7.33953C18.2619 7.5107 18.173 7.6816 18.0139 7.75485C17.9865 7.62049 17.9784 7.48295 17.9899 7.34634C17.9232 7.19453 17.8738 7.03582 17.8425 6.87315C17.8177 6.81896 17.8267 6.7554 17.8657 6.71014C17.9046 6.66489 17.9665 6.64615 18.0242 6.66208V6.65868ZM12.6105 8.70123C12.6874 8.61343 12.7763 8.53666 12.8745 8.47315C12.9341 8.45103 13.001 8.46276 13.0494 8.50378C13.0311 8.6016 13.0196 8.70056 13.0151 8.79995C13.0159 8.82496 13.027 8.84854 13.0458 8.86524C13.0646 8.88195 13.0894 8.89033 13.1145 8.88846H13.1385C13.2595 8.79767 13.4087 8.75189 13.5602 8.7591C13.6699 8.7591 13.6734 8.95315 13.6048 8.95655C13.4065 9.00553 13.2135 9.07395 13.0288 9.16081C12.9754 9.19596 12.9041 9.1873 12.8608 9.14038C12.8309 9.08753 12.8309 9.02301 12.8608 8.97017C12.8608 8.87485 12.8299 8.82038 12.7511 8.834C12.6722 8.84761 12.6379 8.88846 12.6071 8.834C12.5821 8.79722 12.5912 8.74734 12.6276 8.72166L12.6105 8.70123ZM18.9808 8.95315C19.0261 8.99831 19.0261 9.07138 18.9808 9.11655C18.9191 9.17442 18.8745 9.20847 18.8094 9.26634C18.7442 9.32421 18.7614 9.3957 18.8539 9.41953C19.058 9.40207 19.2529 9.32772 19.4162 9.20506C19.4571 9.17104 19.4722 9.11526 19.4539 9.06549C19.3986 9.03885 19.3361 9.03049 19.2757 9.04166C19.2482 9.04166 19.1625 9.04166 19.2036 8.94974C19.234 8.90674 19.2583 8.85977 19.2757 8.81017C19.2997 8.7523 19.2757 8.71144 19.1831 8.68081C19.1013 8.66753 19.018 8.66753 18.9362 8.68081C18.883 8.68939 18.8446 8.73623 18.8471 8.78974C18.8564 8.86203 18.912 8.91993 18.9842 8.93272L18.9808 8.95315ZM13.7625 7.19995L13.6768 7.14889H11.9625C11.8768 7.11485 11.9008 7.08761 11.9625 7.06038C12.3705 7.00591 13.0974 6.88676 13.1454 6.18889C13.1838 5.96321 13.0821 5.73668 12.8874 5.6141C12.6927 5.49153 12.443 5.49682 12.2538 5.62753C12.0646 5.75824 11.9727 5.98887 12.0208 6.21272C12.0208 6.30804 12.0517 6.49187 11.9557 6.51229C11.3282 6.57017 10.6459 6.96166 10.6219 7.24421C10.5842 7.27144 10.4985 7.19315 10.5088 7.074C10.4811 6.55983 10.3345 6.05892 10.0802 5.61017C9.88136 5.41272 9.94308 5.4774 9.81279 5.57272C9.727 5.67215 9.69165 5.80504 9.71679 5.93357C9.71679 5.93357 9.87793 6.38974 10.0116 6.70293C10.1229 7.03133 10.1614 7.37967 10.1248 7.72421C9.90019 8.18273 9.54179 8.5635 9.09622 8.81698C8.95803 8.88006 8.79898 8.88006 8.66079 8.81698C8.57867 8.76056 8.53504 8.66342 8.54765 8.56506C9.00173 8.32176 9.36749 7.94313 9.59336 7.48251C9.69684 7.23324 9.70657 6.95533 9.62079 6.69953C9.59576 6.56531 9.53409 6.44049 9.44251 6.33868C9.49736 6.30123 9.65851 6.42378 9.68251 6.33868C9.63646 6.12923 9.53189 5.93691 9.38079 5.78378C9.29382 5.6837 9.14315 5.66874 9.03794 5.74974C8.90329 5.89946 8.86728 6.11268 8.94536 6.29783C9.01394 6.46463 9.19565 6.49527 9.32593 6.82889C9.35039 6.94211 9.34328 7.05981 9.30536 7.16932C9.0773 7.44858 8.81333 7.69693 8.52022 7.90804C8.49965 7.93187 8.52022 7.90804 8.52022 7.80591C8.52022 7.70378 8.56479 7.43144 8.55108 7.43144C8.32479 7.57783 8.24936 8.02719 8.20822 8.15995C7.63565 8.55485 6.98765 8.84081 6.61393 9.25272C6.41851 9.5591 7.95451 8.91229 8.13279 8.82378C8.17022 8.92448 8.2173 9.02138 8.27336 9.11315C8.47285 9.35665 8.79732 9.46182 9.10308 9.38208C9.596 9.17694 10.0145 8.8279 10.3031 8.38123C10.3287 8.31451 10.4039 8.281 10.4711 8.30634H10.4882C10.7111 8.80676 11.3556 9.16421 12.2025 9.20166C12.3945 8.96676 12.3019 8.86123 12.2231 8.80336C12.0418 8.73591 11.8795 8.62616 11.7499 8.48336C11.7328 8.32159 11.8334 8.17042 11.9899 8.12251C12.5208 8.07328 13.0455 7.97295 13.5568 7.82293C13.5778 7.63374 13.6373 7.45075 13.7317 7.28506C13.7717 7.25549 13.8025 7.2154 13.8208 7.16932L13.7625 7.19995ZM12.3602 6.13442C12.4149 6.08929 12.4942 6.08929 12.5488 6.13442C12.6157 6.15789 12.6571 6.22451 12.6482 6.29442C12.5936 6.33955 12.5143 6.33955 12.4596 6.29442C12.3932 6.27078 12.3529 6.2037 12.3636 6.13442H12.3602ZM11.6745 7.86378C11.4799 7.8846 11.3323 8.04736 11.3316 8.24166C11.4002 8.61272 11.2391 8.48336 11.1431 8.4357C10.886 8.28735 10.7116 8.03014 10.6699 7.73783C10.664 7.64125 10.7373 7.55786 10.8345 7.55059H10.8654C11.1009 7.59382 11.3392 7.62111 11.5785 7.63229C11.7774 7.63229 11.8768 7.7991 11.6916 7.86378H11.6745ZM8.62651 3.77868C8.75983 3.67987 8.78744 3.49255 8.68822 3.35995L8.65736 3.32591C8.53014 3.26219 8.38001 3.26219 8.25279 3.32591C8.12122 3.43925 8.09615 3.63253 8.19451 3.77527C8.29394 3.82293 8.39336 3.92506 8.32822 3.97953C8.02308 4.31995 7.18308 4.87144 7.28251 4.89187C7.46549 4.91905 7.65153 4.91905 7.83451 4.89187C8.16137 4.61218 8.46414 4.30586 8.73965 3.97612L8.62651 3.88421C8.59643 3.86525 8.58726 3.82582 8.60594 3.7957L8.62651 3.77527V3.77868ZM8.49279 3.77868C8.43093 3.78034 8.37525 3.74164 8.35565 3.68336C8.32649 3.64358 8.33405 3.58807 8.37279 3.5574C8.43465 3.55574 8.49034 3.59444 8.50994 3.65272C8.53833 3.69336 8.52924 3.74903 8.48936 3.77868H8.49279Z" fill="white"/>
</svg>
