<svg width="48" height="48" viewBox="0 0 48 48" fill="none" xmlns="http://www.w3.org/2000/svg">
<rect width="48" height="48" rx="24" fill="#FAE6EA"/>
<path fill-rule="evenodd" clip-rule="evenodd" d="M22.0476 25.8692C20.8776 24.6992 19.9956 23.3892 19.4096 22.0602C19.2856 21.7792 19.3586 21.4502 19.5756 21.2332L20.3946 20.4142C21.0656 19.7432 21.0656 18.7942 20.4796 18.2082L19.3056 17.0352C18.5246 16.2542 17.2586 16.2542 16.4776 17.0352L15.8256 17.6862C15.0846 18.4272 14.7756 19.4962 14.9756 20.5562C15.4696 23.1692 16.9876 26.0302 19.4366 28.4792C21.8856 30.9282 24.7466 32.4462 27.3596 32.9402C28.4196 33.1402 29.4886 32.8312 30.2296 32.0902L30.8806 31.4392C31.6616 30.6582 31.6616 29.3922 30.8806 28.6112L29.7076 27.4382C29.1216 26.8522 28.1716 26.8522 27.5866 27.4382L26.6836 28.3422C26.4666 28.5592 26.1376 28.6322 25.8566 28.5082C24.5276 27.9212 23.2176 27.0382 22.0476 25.8692Z" stroke="#99213C" stroke-width="1.5" stroke-linecap="round" stroke-linejoin="round"/>
<path d="M24.9199 17.1698V14.8298" stroke="#99213C" stroke-width="1.5" stroke-linecap="round" stroke-linejoin="round"/>
<path d="M29.0898 18.8199L30.7398 17.1799" stroke="#99213C" stroke-width="1.5" stroke-linecap="round" stroke-linejoin="round"/>
<path d="M30.75 23.0002H33.08" stroke="#99213C" stroke-width="1.5" stroke-linecap="round" stroke-linejoin="round"/>
</svg>
