<svg width="24" height="16" viewBox="0 0 24 16" fill="none" xmlns="http://www.w3.org/2000/svg">
<path d="M2.08987 16H21.9194C22.7096 15.9373 23.4103 15.4714 23.7695 14.7698H0.236328C0.596189 15.4724 1.29838 15.9384 2.08987 16Z" fill="#ED5565"/>
<path d="M0 13.5361V13.9928C0.0300839 14.2625 0.109165 14.5246 0.23341 14.7664H23.7632C23.8874 14.5246 23.9665 14.2625 23.9966 13.9928V13.5361H0Z" fill="white"/>
<path d="M24 12.3058H0V13.536H24V12.3058Z" fill="#ED5565"/>
<path d="M24 11.0757H0V12.3059H24V11.0757Z" fill="white"/>
<path d="M24 9.84546H0V11.0757H24V9.84546Z" fill="#ED5565"/>
<path d="M24 8.61511H0V9.84536H24V8.61511Z" fill="white"/>
<path d="M24 7.38489H0V8.61513H24V7.38489Z" fill="#ED5565"/>
<path d="M24 6.15466H0V7.38491H24V6.15466Z" fill="white"/>
<path d="M24 4.92444H0V6.15468H24V4.92444Z" fill="#ED5565"/>
<path d="M24 3.69067H0V4.92092H24V3.69067Z" fill="white"/>
<path d="M24 2.46045H0V3.69069H24V2.46045Z" fill="#ED5565"/>
<path d="M24.0005 2.46046V2.0038C23.9708 1.73289 23.8917 1.4696 23.7671 1.22681H0.237316C0.112675 1.4696 0.0335831 1.73289 0.00390625 2.0038V2.46046H24.0005Z" fill="white"/>
<path d="M21.9164 0H2.09035C1.30011 0.0627218 0.599469 0.528618 0.240234 1.23024H23.77C23.4101 0.527637 22.7079 0.061577 21.9164 0Z" fill="#ED5565"/>
<path d="M11.39 8.61512V0H2.09134C1.00193 0.0865887 0.127771 0.928743 0.0078125 2.00724V8.61512H11.39Z" fill="#4A89DC"/>
<path d="M1.41036 1.04285L1.31768 1.32911H1.01562L1.25933 1.50291L1.16665 1.78917L1.41036 1.61196L1.65407 1.78917L1.56139 1.50291L1.8051 1.32911H1.50304L1.41036 1.04285Z" fill="white"/>
<path d="M1.41036 2.48779L1.31768 2.77405H1.01562L1.25933 2.95126L1.16665 3.23412L1.41036 3.06032L1.65407 3.23412L1.56139 2.95126L1.8051 2.77405H1.50304L1.41036 2.48779Z" fill="white"/>
<path d="M1.41036 3.93274L1.31768 4.219H1.01562L1.25933 4.39621L1.16665 4.68247L1.41036 4.50526L1.65407 4.68247L1.56139 4.39621L1.8051 4.219H1.50304L1.41036 3.93274Z" fill="white"/>
<path d="M1.41036 5.38098L1.31768 5.66384H1.01562L1.25933 5.84104L1.16665 6.12731L1.41036 5.9501L1.65407 6.12731L1.56139 5.84104L1.8051 5.66384H1.50304L1.41036 5.38098Z" fill="white"/>
<path d="M1.50304 7.1089L1.41036 6.82605L1.31768 7.1089H1.01562L1.25933 7.28611L1.16665 7.57238L1.41036 7.39517L1.65407 7.57238L1.56139 7.28611L1.8051 7.1089H1.50304Z" fill="white"/>
<path d="M2.26583 1.76538L2.17315 2.05164H1.87109L2.1148 2.22885L2.02212 2.51171L2.26583 2.3345L2.51297 2.51171L2.42029 2.22885L2.664 2.05164H2.36194L2.26583 1.76538Z" fill="white"/>
<path d="M2.26583 3.21033L2.17315 3.49659H1.87109L2.1148 3.6738L2.02212 3.95665L2.26583 3.78285L2.51297 3.95665L2.42029 3.6738L2.664 3.49659H2.36194L2.26583 3.21033Z" fill="white"/>
<path d="M2.26583 4.65857L2.17315 4.94142H1.87109L2.1148 5.11863L2.02212 5.4049L2.26583 5.22769L2.51297 5.4049L2.42029 5.11863L2.664 4.94142H2.36194L2.26583 4.65857Z" fill="white"/>
<path d="M2.36194 6.38637L2.26583 6.10352L2.17315 6.38637H1.87109L2.1148 6.56358L2.02212 6.84984L2.26583 6.67263L2.51297 6.84984L2.42029 6.56358L2.664 6.38637H2.36194Z" fill="white"/>
<path d="M3.12325 1.04285L3.03058 1.32911H2.72852L2.97222 1.50291L2.87955 1.78917L3.12325 1.61196L3.36696 1.78917L3.27428 1.50291L3.51799 1.32911H3.21593L3.12325 1.04285Z" fill="white"/>
<path d="M3.12325 2.48779L3.03058 2.77405H2.72852L2.97222 2.95126L2.87955 3.23412L3.12325 3.06032L3.36696 3.23412L3.27428 2.95126L3.51799 2.77405H3.21593L3.12325 2.48779Z" fill="white"/>
<path d="M3.12325 3.93274L3.03058 4.219H2.72852L2.97222 4.39621L2.87955 4.68247L3.12325 4.50526L3.36696 4.68247L3.27428 4.39621L3.51799 4.219H3.21593L3.12325 3.93274Z" fill="white"/>
<path d="M3.12325 5.38098L3.03058 5.66384H2.72852L2.97222 5.84104L2.87955 6.12731L3.12325 5.9501L3.36696 6.12731L3.27428 5.84104L3.51799 5.66384H3.21593L3.12325 5.38098Z" fill="white"/>
<path d="M3.21593 7.1089L3.12325 6.82605L3.03058 7.1089H2.72852L2.97222 7.28611L2.87955 7.57238L3.12325 7.39517L3.36696 7.57238L3.27428 7.28611L3.51799 7.1089H3.21593Z" fill="white"/>
<path d="M3.97872 1.76538L3.88604 2.05164H3.58398L3.82769 2.22885L3.73501 2.51171L3.97872 2.3345L4.22586 2.51171L4.13318 2.22885L4.37689 2.05164H4.07483L3.97872 1.76538Z" fill="white"/>
<path d="M3.97872 3.21033L3.88604 3.49659H3.58398L3.82769 3.6738L3.73501 3.95665L3.97872 3.78285L4.22586 3.95665L4.13318 3.6738L4.37689 3.49659H4.07483L3.97872 3.21033Z" fill="white"/>
<path d="M3.97872 4.65857L3.88604 4.94142H3.58398L3.82769 5.11863L3.73501 5.4049L3.97872 5.22769L4.22586 5.4049L4.13318 5.11863L4.37689 4.94142H4.07483L3.97872 4.65857Z" fill="white"/>
<path d="M4.07483 6.38637L3.97872 6.10352L3.88604 6.38637H3.58398L3.82769 6.56358L3.73501 6.84984L3.97872 6.67263L4.22586 6.84984L4.13318 6.56358L4.37689 6.38637H4.07483Z" fill="white"/>
<path d="M4.83614 1.04285L4.74347 1.32911H4.44141L4.68511 1.50291L4.59244 1.78917L4.83614 1.61196L5.07985 1.78917L4.98717 1.50291L5.23088 1.32911H4.92882L4.83614 1.04285Z" fill="white"/>
<path d="M4.83614 2.48779L4.74347 2.77405H4.44141L4.68511 2.95126L4.59244 3.23412L4.83614 3.06032L5.07985 3.23412L4.98717 2.95126L5.23088 2.77405H4.92882L4.83614 2.48779Z" fill="white"/>
<path d="M4.83614 3.93274L4.74347 4.219H4.44141L4.68511 4.39621L4.59244 4.68247L4.83614 4.50526L5.07985 4.68247L4.98717 4.39621L5.23088 4.219H4.92882L4.83614 3.93274Z" fill="white"/>
<path d="M4.83614 5.38098L4.74347 5.66384H4.44141L4.68511 5.84104L4.59244 6.12731L4.83614 5.9501L5.07985 6.12731L4.98717 5.84104L5.23088 5.66384H4.92882L4.83614 5.38098Z" fill="white"/>
<path d="M4.92882 7.1089L4.83614 6.82605L4.74347 7.1089H4.44141L4.68511 7.28611L4.59244 7.57238L4.83614 7.39517L5.07985 7.57238L4.98717 7.28611L5.23088 7.1089H4.92882Z" fill="white"/>
<path d="M5.69161 1.76538L5.59893 2.05164H5.29688L5.54058 2.22885L5.4479 2.51171L5.69161 2.3345L5.93875 2.51171L5.84264 2.22885L6.08978 2.05164H5.78772L5.69161 1.76538Z" fill="white"/>
<path d="M5.69161 3.21033L5.59893 3.49659H5.29688L5.54058 3.6738L5.4479 3.95665L5.69161 3.78285L5.93875 3.95665L5.84264 3.6738L6.08978 3.49659H5.78772L5.69161 3.21033Z" fill="white"/>
<path d="M5.69161 4.65857L5.59893 4.94142H5.29688L5.54058 5.11863L5.4479 5.4049L5.69161 5.22769L5.93875 5.4049L5.84264 5.11863L6.08978 4.94142H5.78772L5.69161 4.65857Z" fill="white"/>
<path d="M5.78772 6.38637L5.69161 6.10352L5.59893 6.38637H5.29688L5.54058 6.56358L5.4479 6.84984L5.69161 6.67263L5.93875 6.84984L5.84264 6.56358L6.08978 6.38637H5.78772Z" fill="white"/>
<path d="M6.54903 1.04285L6.45636 1.32911H6.1543L6.398 1.50291L6.30533 1.78917L6.54903 1.61196L6.79274 1.78917L6.70006 1.50291L6.94377 1.32911H6.64171L6.54903 1.04285Z" fill="white"/>
<path d="M6.54903 2.48779L6.45636 2.77405H6.1543L6.398 2.95126L6.30533 3.23412L6.54903 3.06032L6.79274 3.23412L6.70006 2.95126L6.94377 2.77405H6.64171L6.54903 2.48779Z" fill="white"/>
<path d="M6.54903 3.93274L6.45636 4.219H6.1543L6.398 4.39621L6.30533 4.68247L6.54903 4.50526L6.79274 4.68247L6.70006 4.39621L6.94377 4.219H6.64171L6.54903 3.93274Z" fill="white"/>
<path d="M6.54903 5.38098L6.45636 5.66384H6.1543L6.398 5.84104L6.30533 6.12731L6.54903 5.9501L6.79274 6.12731L6.70006 5.84104L6.94377 5.66384H6.64171L6.54903 5.38098Z" fill="white"/>
<path d="M6.64171 7.1089L6.54903 6.82605L6.45636 7.1089H6.1543L6.398 7.28611L6.30533 7.57238L6.54903 7.39517L6.79274 7.57238L6.70006 7.28611L6.94377 7.1089H6.64171Z" fill="white"/>
<path d="M7.4045 1.76538L7.31182 2.05164H7.00977L7.25347 2.22885L7.1608 2.51171L7.4045 2.3345L7.65164 2.51171L7.55553 2.22885L7.80267 2.05164H7.50061L7.4045 1.76538Z" fill="white"/>
<path d="M7.4045 3.21033L7.31182 3.49659H7.00977L7.25347 3.6738L7.1608 3.95665L7.4045 3.78285L7.65164 3.95665L7.55553 3.6738L7.80267 3.49659H7.50061L7.4045 3.21033Z" fill="white"/>
<path d="M7.4045 4.65857L7.31182 4.94142H7.00977L7.25347 5.11863L7.1608 5.4049L7.4045 5.22769L7.65164 5.4049L7.55553 5.11863L7.80267 4.94142H7.50061L7.4045 4.65857Z" fill="white"/>
<path d="M7.50061 6.38637L7.4045 6.10352L7.31182 6.38637H7.00977L7.25347 6.56358L7.1608 6.84984L7.4045 6.67263L7.65164 6.84984L7.55553 6.56358L7.80267 6.38637H7.50061Z" fill="white"/>
<path d="M8.26192 1.04285L8.16925 1.32911H7.86719L8.11089 1.50291L8.01822 1.78917L8.26192 1.61196L8.50563 1.78917L8.41295 1.50291L8.65666 1.32911H8.3546L8.26192 1.04285Z" fill="white"/>
<path d="M8.26192 2.48779L8.16925 2.77405H7.86719L8.11089 2.95126L8.01822 3.23412L8.26192 3.06032L8.50563 3.23412L8.41295 2.95126L8.65666 2.77405H8.3546L8.26192 2.48779Z" fill="white"/>
<path d="M8.26192 3.93274L8.16925 4.219H7.86719L8.11089 4.39621L8.01822 4.68247L8.26192 4.50526L8.50563 4.68247L8.41295 4.39621L8.65666 4.219H8.3546L8.26192 3.93274Z" fill="white"/>
<path d="M8.26192 5.38098L8.16925 5.66384H7.86719L8.11089 5.84104L8.01822 6.12731L8.26192 5.9501L8.50563 6.12731L8.41295 5.84104L8.65666 5.66384H8.3546L8.26192 5.38098Z" fill="white"/>
<path d="M8.3546 7.1089L8.26192 6.82605L8.16925 7.1089H7.86719L8.11089 7.28611L8.01822 7.57238L8.26192 7.39517L8.50563 7.57238L8.41295 7.28611L8.65666 7.1089H8.3546Z" fill="white"/>
<path d="M9.11739 1.76538L9.02472 2.05164H8.72266L8.96636 2.22885L8.87369 2.51171L9.11739 2.3345L9.36453 2.51171L9.26842 2.22885L9.51556 2.05164H9.2135L9.11739 1.76538Z" fill="white"/>
<path d="M9.11739 3.21033L9.02472 3.49659H8.72266L8.96636 3.6738L8.87369 3.95665L9.11739 3.78285L9.36453 3.95665L9.26842 3.6738L9.51556 3.49659H9.2135L9.11739 3.21033Z" fill="white"/>
<path d="M9.11739 4.65857L9.02472 4.94142H8.72266L8.96636 5.11863L8.87369 5.4049L9.11739 5.22769L9.36453 5.4049L9.26842 5.11863L9.51556 4.94142H9.2135L9.11739 4.65857Z" fill="white"/>
<path d="M9.2135 6.38637L9.11739 6.10352L9.02472 6.38637H8.72266L8.96636 6.56358L8.87369 6.84984L9.11739 6.67263L9.36453 6.84984L9.26842 6.56358L9.51556 6.38637H9.2135Z" fill="white"/>
<path d="M9.82379 1.50291L9.73111 1.78917L9.97481 1.61196L10.2185 1.78917L10.1258 1.50291L10.3696 1.32911H10.0675L9.97481 1.04285L9.88214 1.32911H9.58008L9.82379 1.50291Z" fill="white"/>
<path d="M9.97481 2.48779L9.88214 2.77405H9.58008L9.82379 2.95126L9.73111 3.23412L9.97481 3.06032L10.2185 3.23412L10.1258 2.95126L10.3696 2.77405H10.0675L9.97481 2.48779Z" fill="white"/>
<path d="M9.97481 3.93274L9.88214 4.219H9.58008L9.82379 4.39621L9.73111 4.68247L9.97481 4.50526L10.2185 4.68247L10.1258 4.39621L10.3696 4.219H10.0675L9.97481 3.93274Z" fill="white"/>
<path d="M9.97481 5.38098L9.88214 5.66384H9.58008L9.82379 5.84104L9.73111 6.12731L9.97481 5.9501L10.2185 6.12731L10.1258 5.84104L10.3696 5.66384H10.0675L9.97481 5.38098Z" fill="white"/>
<path d="M10.0675 7.1089L9.97481 6.82605L9.88214 7.1089H9.58008L9.82379 7.28611L9.73111 7.57238L9.97481 7.39517L10.2185 7.57238L10.1258 7.28611L10.3696 7.1089H10.0675Z" fill="white"/>
</svg>
