<svg width="24" height="16" viewBox="0 0 24 16" fill="none" xmlns="http://www.w3.org/2000/svg">
<path d="M2.18088 0.00340352C0.976415 0.00340352 0 0.972547 0 2.16805V13.8319C0 15.0274 0.976415 15.9966 2.18088 15.9966H8.01029C8.01029 10.6644 8.01029 5.33219 8.01029 0L2.18088 0.00340352Z" fill="#4758A9"/>
<path d="M8.00391 0.00341797C8.00391 5.33561 8.00391 10.6678 8.00391 16H16.0108C16.0108 10.6678 16.0108 5.33561 16.0108 0.00341797H8.00391Z" fill="white"/>
<path d="M21.8201 0.00341797H16.0078C16.0078 5.33561 16.0078 10.6678 16.0078 16H21.8201C23.0245 16 24.001 15.0308 24.001 13.8353V2.17146C24.0019 1.59678 23.7725 1.04532 23.3634 0.63863C22.9543 0.231944 22.3991 0.00341726 21.8201 0.00341797Z" fill="#ED5565"/>
</svg>
