<svg width="20" height="20" viewBox="0 0 20 20" fill="none" xmlns="http://www.w3.org/2000/svg">
<path fill-rule="evenodd" clip-rule="evenodd" d="M8.33203 2.91385C8.33203 2.22321 8.89191 1.66333 9.58255 1.66333H17.0857C17.7763 1.66333 18.3362 2.22321 18.3362 2.91385V7.91593C18.3362 8.60658 17.7763 9.16645 17.0857 9.16645H16.2814V10.833C16.2814 11.0016 16.1798 11.1536 16.024 11.2181C15.8683 11.2826 15.689 11.2469 15.5698 11.1277L13.6085 9.16645H9.58255C8.89191 9.16645 8.33203 8.60658 8.33203 7.91593V2.91385Z" stroke="#1E2028" stroke-linecap="round" stroke-linejoin="round"/>
<path d="M10.8345 11.6674V15.0556C10.8345 15.7463 10.2747 16.3062 9.58403 16.3062H6.36466L4.45689 18.2139C4.33768 18.3331 4.15839 18.3688 4.00263 18.3043C3.84688 18.2397 3.74532 18.0878 3.74531 17.9192V16.3062H2.91458C2.22394 16.3062 1.66406 15.7463 1.66406 15.0556V10C1.66406 9.30939 2.22394 8.74951 2.91458 8.74951H5.83246" stroke="#1E2028" stroke-linecap="round" stroke-linejoin="round"/>
<path d="M11.9023 6.39706H14.7572" stroke="#1E2028" stroke-linecap="round" stroke-linejoin="round"/>
<path d="M15.0027 7.06373L13.8022 3.729H12.8685L11.668 7.06373" stroke="#1E2028" stroke-linecap="round" stroke-linejoin="round"/>
<path d="M6.24887 11.9216V10.8604" stroke="#1E2028" stroke-linecap="round" stroke-linejoin="round"/>
<path d="M6.24876 11.9216C6.24785 12.839 5.78409 13.694 5.01562 14.1951" stroke="#1E2028" stroke-linecap="round" stroke-linejoin="round"/>
<path d="M7.48118 14.1951C6.7127 13.694 6.24895 12.839 6.24805 11.9216" stroke="#1E2028" stroke-linecap="round" stroke-linejoin="round"/>
<path d="M7.70694 11.9217H4.78906" stroke="#1E2028" stroke-linecap="round" stroke-linejoin="round"/>
</svg>
