<svg width="32" height="32" viewBox="0 0 32 32" fill="none" xmlns="http://www.w3.org/2000/svg">
<rect width="32" height="32" rx="16" fill="#99213C"/>
<path d="M14.3773 18.5789L14.3773 18.5789C14.1648 18.8622 14.1603 19.2505 14.3661 19.5387L16.8073 22.9563C17.1933 23.4967 18.0293 23.371 18.2393 22.741L22.2235 10.7883C22.4352 10.1531 21.831 9.54883 21.1958 9.76055L9.24308 13.7448L9.47777 14.4489L9.24308 13.7448C8.61311 13.9548 8.48741 14.7908 9.02776 15.1767L9.02776 15.1767L12.4454 17.6179C12.4454 17.6179 12.4454 17.6179 12.4454 17.6179C12.7336 17.8238 13.1219 17.8193 13.4052 17.6068L13.4052 17.6068L17.2937 14.6904L14.3773 18.5789Z" stroke="white" stroke-width="1.5"/>
</svg>
