<svg width="48" height="48" viewBox="0 0 48 48" fill="none" xmlns="http://www.w3.org/2000/svg">
<rect width="48" height="48" rx="24" fill="#FAE6EA"/>
<path d="M24.1768 22.323C24.2744 22.4206 24.2744 22.5789 24.1768 22.6765C24.0791 22.7742 23.9209 22.7742 23.8232 22.6765C23.7256 22.5789 23.7256 22.4206 23.8232 22.323C23.9209 22.2253 24.0791 22.2253 24.1768 22.323" stroke="#99213C" stroke-width="1.5" stroke-linecap="round" stroke-linejoin="round"/>
<path d="M19.6768 22.323C19.7744 22.4206 19.7744 22.5789 19.6768 22.6765C19.5791 22.7742 19.4209 22.7742 19.3232 22.6765C19.2256 22.5789 19.2256 22.4206 19.3232 22.323C19.4209 22.2253 19.5791 22.2253 19.6768 22.323" stroke="#99213C" stroke-width="1.5" stroke-linecap="round" stroke-linejoin="round"/>
<path d="M28.6768 22.323C28.7744 22.4206 28.7744 22.5789 28.6768 22.6765C28.5791 22.7742 28.4209 22.7742 28.3232 22.6765C28.2256 22.5789 28.2256 22.4206 28.3232 22.323C28.4209 22.2253 28.5791 22.2253 28.6768 22.323" stroke="#99213C" stroke-width="1.5" stroke-linecap="round" stroke-linejoin="round"/>
<path fill-rule="evenodd" clip-rule="evenodd" d="M15 28.0052V17.0002C15 16.4482 15.448 16.0002 16 16.0002H32C32.552 16.0002 33 16.4482 33 17.0002V32.0002L27.091 29.0602L15.995 29.0052C15.445 29.0022 15 28.5552 15 28.0052Z" stroke="#99213C" stroke-width="1.5" stroke-linecap="round" stroke-linejoin="round"/>
</svg>
