<svg width="20" height="20" viewBox="0 0 20 20" fill="none" xmlns="http://www.w3.org/2000/svg">
<rect x="2.49805" y="2.49683" width="15.0062" height="15.0062" rx="4" stroke="#1E2028" stroke-linecap="round" stroke-linejoin="round"/>
<path fill-rule="evenodd" clip-rule="evenodd" d="M7.56172 7.58829L6.32287 8.5762C6.04352 8.79931 5.87221 9.13067 5.85169 9.4876C5.83117 9.84452 5.96338 10.1933 6.21532 10.447L7.0315 11.2673C7.2835 11.5208 7.63153 11.6549 7.98846 11.6362C8.34539 11.6174 8.67743 11.4475 8.90144 11.1689L9.89519 9.93427C10.1534 9.61335 10.4461 9.32176 10.7681 9.06474L12.0069 8.07683C12.2865 7.85387 12.458 7.52247 12.4785 7.16546C12.499 6.80845 12.3666 6.45958 12.1144 6.20605L11.2983 5.38571C11.0463 5.13224 10.6982 4.9981 10.3413 5.01687C9.98438 5.03565 9.65234 5.20557 9.42833 5.48408L8.43541 6.71876C8.17709 7.0399 7.88408 7.33151 7.56172 7.58829V7.58829Z" stroke="#1E2028" stroke-linecap="round" stroke-linejoin="round"/>
<path d="M8.87497 14.1683H5.83203" stroke="#1E2028" stroke-linecap="round" stroke-linejoin="round"/>
<path d="M11.1141 8.78857L14.5147 11.6673C14.9195 12.0111 15.0997 12.5515 14.9824 13.0695C14.865 13.5875 14.4696 13.9974 13.9562 14.1333C13.4427 14.2692 12.8963 14.1086 12.538 13.7165L9.52344 10.3951" stroke="#1E2028" stroke-linecap="round" stroke-linejoin="round"/>
</svg>
